<svg xmlns="http://www.w3.org/2000/svg" xmlns:xlink="http://www.w3.org/1999/xlink" viewBox="0 0 112.23 27.15"><defs><style>.cls-1{fill:none;}.cls-2{clip-path:url(#clip-path);}.cls-3{fill:#231f20;}</style><clipPath id="clip-path" transform="translate(0)"><rect class="cls-1" width="112.23" height="27.15"/></clipPath></defs><g id="Layer_2" data-name="Layer 2"><g id="Layer_1-2" data-name="Layer 1"><g class="cls-2"><path class="cls-3" d="M99.67,7.65V26.56h7.07V7.65h5.49V.59h-18V7.65ZM89.84.59H82.78v18a1.49,1.49,0,0,1-1.49,1.49H80a1.49,1.49,0,0,1-1.49-1.49V.59H71.48v18A8.58,8.58,0,0,0,80,27.15h1.26a8.57,8.57,0,0,0,8.55-8.55ZM58.31,7.06A1.49,1.49,0,0,1,59.8,8.55V18.6a1.49,1.49,0,0,1-1.49,1.49H57.05a1.49,1.49,0,0,1-1.49-1.49v-10a1.49,1.49,0,0,1,1.49-1.49ZM57.05,0A8.57,8.57,0,0,0,48.5,8.55V18.6a8.57,8.57,0,0,0,8.55,8.55h1.26a8.58,8.58,0,0,0,8.55-8.55v-10A8.57,8.57,0,0,0,58.31,0ZM36.52,17.11a1.21,1.21,0,0,1,1.21,1.21,1.19,1.19,0,0,1-1.21,1.18H34.59V17.11Zm0-9.46a1.22,1.22,0,0,1,1.21,1.22A1.19,1.19,0,0,1,36.52,10H34.59V7.65Zm-9,18.91h9a8.26,8.26,0,0,0,6.78-13,8.09,8.09,0,0,0,1.49-4.7A8.3,8.3,0,0,0,36.52.59h-9ZM16.52,24l.9,2.55h7.45L15.42.59H9.49L0,26.56H7.45L8.36,24ZM11,17l1.49-4,1.49,4Z" transform="translate(0)"/></g></g></g></svg>