<svg xmlns="http://www.w3.org/2000/svg" xmlns:xlink="http://www.w3.org/1999/xlink" viewBox="0 0 152.33 27.15"><defs><style>.cls-1{fill:none;}.cls-2{clip-path:url(#clip-path);}.cls-3{fill:#231f20;}</style><clipPath id="clip-path" transform="translate(0)"><rect class="cls-1" width="152.33" height="27.15"/></clipPath></defs><g id="Layer_2" data-name="Layer 2"><g id="Layer_1-2" data-name="Layer 1"><g class="cls-2"><path class="cls-3" d="M142.84,9.93V7.65h9.49V.59H135.78v26h16.55V19.5h-9.49V17h9.49V9.93ZM132.5.59h-7.45l-5.14,14.12L114.77.59h-7.46l9.46,26h6.28Zm-28.4,0H97v26h7.06ZM92.66.59H85.6V9.65H79V.59H72v26H79V16.71H85.6v9.85h7.06Zm-24.55,8A8.57,8.57,0,0,0,59.56,0H58.31a8.57,8.57,0,0,0-8.56,8.55V18.6a8.58,8.58,0,0,0,8.56,8.55h1.25a8.57,8.57,0,0,0,8.55-8.55v-2H61.05v2a1.49,1.49,0,0,1-1.49,1.49H58.31a1.5,1.5,0,0,1-1.5-1.49v-10a1.5,1.5,0,0,1,1.5-1.49h1.25a1.49,1.49,0,0,1,1.49,1.49v2.12h7.06ZM46,8.87A8.31,8.31,0,0,0,37.73.59H28.32v26h7.06v-4.2l3.53,4.2h9.3L40,16.79a8.26,8.26,0,0,0,6-7.92M35.38,7.65h2.35A1.22,1.22,0,0,1,39,8.87,1.19,1.19,0,0,1,37.73,10H35.38ZM16.52,24l.9,2.55h7.45L15.42.59H9.49L0,26.56H7.45L8.36,24ZM11,17l1.49-4,1.49,4Z" transform="translate(0)"/></g></g></g></svg>