<svg xmlns="http://www.w3.org/2000/svg" xmlns:xlink="http://www.w3.org/1999/xlink" viewBox="0 0 102.04 75.96"><defs><style>.cls-1{fill:none;}.cls-2{clip-path:url(#clip-path);}.cls-3{fill:#231f20;}</style><clipPath id="clip-path" transform="translate(0 0)"><rect class="cls-1" width="102.04" height="75.96"/></clipPath></defs><g id="Layer_2" data-name="Layer 2"><g id="Layer_1-2" data-name="Layer 1"><g class="cls-2"><path class="cls-3" d="M40.21,9.83A15.63,15.63,0,1,0,51.36,5.49,15.53,15.53,0,0,0,40.21,9.83m10.5,25.73A14.44,14.44,0,1,1,65.46,21.43,14.45,14.45,0,0,1,50.71,35.56" transform="translate(0 0)"/><path class="cls-3" d="M36.42,5.87A21.13,21.13,0,1,0,51.48,0,20.93,20.93,0,0,0,36.42,5.87m14.17,35.4A20.16,20.16,0,1,1,71.18,21.55,20.17,20.17,0,0,1,50.59,41.27" transform="translate(0 0)"/><path class="cls-3" d="M55.23,33.67C47.39,35.08,41.1,32,40,28.27c-.74-2.44.34-3,.51-4.72-1.35.72-1.6-1.16-.41-1.33s1.84,1.17,1.22,2.94c-.88,2.55.67,3.73,1.11,3.6a2.86,2.86,0,0,1,.26-.61c-1.07-1.36-.62-3.35,1.2-3.51.74-.07.66.47.15.55-1.4.2-1.33,1.76-.75,2a.44.44,0,0,0,.32-.13c0-.32.2-.77.56-.68.81.2.5,1.23,0,1.31a5.61,5.61,0,0,0-.52,2c.08.45.4.54.66.28a3,3,0,0,0,.42-1.18c-.14-.57.15-1,.63-.8s.38.66.05,1.07a9.64,9.64,0,0,0-.22,1.43c0,.38.57.35.76.15a9.52,9.52,0,0,0,.45-1.84.68.68,0,0,1,.42-1.1c.7-.05.54.9.34,1.14.2.75-.12,1.59,0,1.92a.61.61,0,0,0,.94.14c.25-.27-.06-.85.07-1.52-.23-.58,0-1,.39-1.07.78-.06.56.64.41,1.14A6.06,6.06,0,0,0,49.2,31a.42.42,0,0,0,.78,0c.1-.24-.14-.93-.19-1.42-.34-.79,0-1,.25-1s.68.14.63.92A12.7,12.7,0,0,0,51.16,31a.32.32,0,0,0,.62,0c.12-.34-.11-.74-.37-1.3a.54.54,0,0,1,.27-1c.32,0,.82.06.72.91.17.52.28,1,.4,1.26a.48.48,0,0,0,.76.15c.19-.21-.17-.57-.27-1-.42-.41-.34-1,.14-1,.25,0,.73,0,.68.73a8.73,8.73,0,0,0,.36,1.05c.25.41.64.26.8-.12s-.82-1.46-.06-1.52.89.94,1.14,1.18.43.08.55-.05-.33-.82,0-1c.74-.34.73.51,1.26.52,2.31,0,4.12-3.75,3.85-4.82-.77-.46-.5-1.6.15-1.62,1.59,0,1.37,2.22.16,4.83a10.9,10.9,0,0,1-7.13,5.48" transform="translate(0 0)"/><path class="cls-3" d="M58.59,15.67s0-.06,0-.08a17.52,17.52,0,0,0,.75-3.33.63.63,0,0,0-.42-.65,7.51,7.51,0,0,0-1.56-.23.16.16,0,0,1-.14-.06,3.88,3.88,0,0,1-.24-1.1c.49-1-.39-1.4-1.22-1.39-.54,0-1.1.22-1.16.63-.07.79.8,1.08,1.11,1.11a5,5,0,0,1,.2.88s0,.06-.06.06c-1.4,0-3.22.28-4.14.35a.19.19,0,0,1-.22-.14c-.17-.47-.9-2.7.47-2.65.81,0,1.49-.64.72-1.15a4.14,4.14,0,0,0-1.8-.16.92.92,0,0,0-.63,1.07c.09.72-1.7.79-2.23.58a2.55,2.55,0,0,1-1-.9c-.34-.62-.94-.15-.83.18.74,2.25,3.11,1.89,3.73,1.92,0,0,.09,0,.09.06.15.81.63,1.66.63,2a.76.76,0,0,0,.25,1.15c-.51.49-.74,2.19-.66,3.61.11,1.8.84,3.55,2,3.36,1.46-.24.89-3.61,1.24-3.9a1.46,1.46,0,0,1,.82-.08.08.08,0,0,1,.06.07c-.11,1.33-.43,3.45-.5,4A1.87,1.87,0,0,0,54,22.28a6,6,0,0,1,.22,4.43.15.15,0,0,1-.11.11,3.36,3.36,0,0,0-1.17.48c-.24.17-.5.51-.33.72A2.43,2.43,0,0,0,55,27.4a.54.54,0,0,0,0-.11,9.2,9.2,0,0,1,.57-1.17c.77-1.47.88-3.27-.17-4.08-.3-.23-.6-.45-.31-1a8.34,8.34,0,0,0,.69-3.32.55.55,0,0,1,1-.26,5.94,5.94,0,0,1,.13,3.35,3.35,3.35,0,0,0,.26,1.11A13,13,0,0,1,57,27.5s0,.07-.08.08a3.68,3.68,0,0,0-1,.46c-.29.2-.41.46-.28.6.39.44,2.14,0,2.27-.53.33-1.25,2.68-4.14,1-6-.75-.84-.75-.5-.75-.93,0-.2.46-1.32.58-2.18s-.46-1.76-.31-2.26c0,0,0,0,.05,0a4.48,4.48,0,0,1,1.2.41c.11.06.31,0,.34-.43s-1.2-1-1.44-1m-6.72,3.75c-.68,0-.93-4.24-.23-4.23s.69,4.24.23,4.23m2.24-6.25a14,14,0,0,1,.32,1.74c0,.21,0,.47-.18.52a1.92,1.92,0,0,1-1.14,0c-.31-.12-.1-1.38-1.26-1.6a.61.61,0,0,0,.28-.51.58.58,0,0,1,.52-.41,6.75,6.75,0,0,1,1-.06.45.45,0,0,1,.43.34M57.28,15a1.56,1.56,0,0,1-1.48.05c-.34-.2-.42-1.7-.25-2.11s2-.43,2.09-.15A4.26,4.26,0,0,1,57.28,15" transform="translate(0 0)"/><path class="cls-3" d="M49.67,17.12a4.86,4.86,0,0,0-3.8-4.07c-2.36-.39-6,.56-6.43,4a5.24,5.24,0,0,0,5.64,6c3.58-.28,4.77-3.71,4.59-6m-2.13,2.56c.19,0,.56,0,.66.3s-.68,1.19-1.05,1.29-.57-.27-.5-.61a2.65,2.65,0,0,1,.89-1m1.22-1.14a.52.52,0,0,1-.69-.08A4.52,4.52,0,0,1,48,17a.56.56,0,0,1,.68-.19c.25.14.39,1.54.08,1.74m-.7-3c-.05.22-.41.3-.57.28A2.62,2.62,0,0,1,46.42,15a.43.43,0,0,1,.32-.53c.51-.13,1.37.82,1.32,1.14m-2.78-1.62a.48.48,0,0,1,0,.56,5.18,5.18,0,0,1-1.59.19c-.4,0-.58-.44-.45-.64.24-.38,1.91-.41,2.05-.11m1,2.33c0,.34-1.19.91-1.43.77s-1-1.26-.91-1.44c.52-.63,2.34.14,2.34.67M43.07,16a2.09,2.09,0,0,1,.73,1.48,2.25,2.25,0,0,1-1.55.71A1.67,1.67,0,0,1,43.07,16m-.27,3.26c0-.21,1.07-.93,1.49-.78s.88,1.47.59,1.6a1.9,1.9,0,0,1-2.08-.82m3.33.22c-.31-.14-1.13-1.21-.84-1.5s1.42-.86,1.6-.68c.71.66-.14,2.45-.76,2.18M41.4,16.23c-.3.15-.58-.06-.61-.43s.84-1.28,1.16-1.19a.66.66,0,0,1,.36.6,3.66,3.66,0,0,1-.91,1m-.21,2.53c-.17.2-.55.32-.73.18a1.69,1.69,0,0,1-.18-1.49c.12-.26.74-.4.86-.11a3.44,3.44,0,0,1,0,1.42M41,20.31a.61.61,0,0,1,.66-.54,2.9,2.9,0,0,1,1,1,.52.52,0,0,1-.43.61c-.34,0-1.2-.76-1.23-1.07m2.75,1.53c-.24-.14,0-.61.29-.67a3.6,3.6,0,0,1,1.35,0c.22.1.38.56.26.7a2.76,2.76,0,0,1-1.9,0" transform="translate(0 0)"/><polygon class="cls-3" points="44.5 3.18 44.4 3.99 43.88 4.61 44.68 4.71 45.3 5.24 45.41 4.43 45.93 3.81 45.12 3.71 44.5 3.18"/><polygon class="cls-3" points="59.57 38.08 58.91 37.6 58.1 37.55 58.58 36.89 58.63 36.08 59.29 36.56 60.1 36.61 59.62 37.27 59.57 38.08"/><polygon class="cls-3" points="42.42 38.05 43.08 37.57 43.89 37.53 43.41 36.87 43.36 36.06 42.71 36.53 41.9 36.58 42.37 37.24 42.42 38.05"/><path class="cls-3" d="M37.94,34.56l.82-1c.38-.45,1-.41,1.55.07s.71,1.09.33,1.53l-.83,1c-.1.11-.1.18,0,.3l-.29.22-.8-.68.18-.32c.13.11.2.1.3,0l.83-1c.17-.2.15-.43-.11-.65s-.5-.21-.67,0l-.82,1c-.11.12-.11.18,0,.29l-.29.23-.73-.62.17-.33c.14.12.2.1.31,0" transform="translate(0 0)"/><path class="cls-3" d="M35.28,31.34,37,30l.33.44-.55,1.84a2.83,2.83,0,0,1-.14.33l.24-.2.77-.58c.12-.09.15-.15,0-.3l.33-.15.53.7-.24.28c-.11-.14-.18-.14-.3,0l-1.28,1c-.13.1-.15.16,0,.3l-.34.16-.47-.63.5-1.68a2.52,2.52,0,0,1,.14-.34l-.25.22-.66.49c-.12.09-.14.16,0,.3l-.34.15-.53-.7.25-.28c.1.14.17.14.29.05" transform="translate(0 0)"/><path class="cls-3" d="M36,28l.46.92-.29.23C36,29,36,29,35.83,29l-1.43.71c-.14.07-.17.13-.09.29l-.36.09-.45-.91.29-.23c.07.16.14.17.28.1l1.44-.71c.13-.07.17-.13.09-.29Z" transform="translate(0 0)"/><path class="cls-3" d="M32.7,25.24l2.36.22.2.7-1.87,1.45a.23.23,0,0,0-.1.32l-.37,0-.29-1L33,26.8c0,.14.11.16.23.07l.9-.68a5,5,0,0,1,.47-.25A5.33,5.33,0,0,1,34,26l-1.13-.11c-.16,0-.19.06-.14.2l-.37,0-.26-.87.32-.17c0,.16.09.19.27.2" transform="translate(0 0)"/><path class="cls-3" d="M34.44,21.54l.19,2.12-.35.11c0-.17-.07-.21-.23-.2l-1.59.15c-.16,0-.21.06-.19.24l-.37-.05-.18-2,.65-.06.08.28c-.21.05-.25.11-.22.41l0,.47.66-.06,0-.42c0-.18,0-.25-.19-.24l0-.29.65-.06.11.28c-.15,0-.18.09-.16.27l0,.42.72-.06L34,22.18c0-.29-.11-.33-.31-.35l0-.3Z" transform="translate(0 0)"/><path class="cls-3" d="M34.74,17.83l-.09.81c-.43.36-1.11,0-1.17.54l0,.33.52.06c.15,0,.21,0,.23-.19l.35.12-.11,1-.37,0c0-.19,0-.23-.18-.24l-1.6-.18c-.15,0-.21,0-.23.19l-.35-.12.16-1.38c.07-.67.39-1,.9-1a.71.71,0,0,1,.63.6.7.7,0,0,1,.65-.4c.23,0,.31-.05.33-.26v-.06ZM32.27,19l-.05.41.79.08,0-.39c0-.3-.1-.47-.34-.5a.39.39,0,0,0-.44.4" transform="translate(0 0)"/><path class="cls-3" d="M35.3,16.07a2.37,2.37,0,0,1-.59,1l-.52-.33.08-.23a.68.68,0,0,0,.62-.53c.07-.21,0-.46-.18-.53s-.32.05-.54.46-.55.78-1.08.61-.67-.72-.48-1.31a2.39,2.39,0,0,1,.52-.9l.49.32-.08.23a.64.64,0,0,0-.52.48c-.08.23,0,.43.15.48s.29-.06.45-.37c.29-.54.6-.9,1.18-.71s.69.78.5,1.36" transform="translate(0 0)"/><path class="cls-3" d="M36.52,13.12l-.47.91-.35-.1c.08-.15,0-.22-.09-.29l-1.43-.73c-.13-.07-.2-.06-.28.1l-.29-.23.47-.91.36.1c-.09.15-.06.21.08.29L36,13c.13.07.2.06.29-.1Z" transform="translate(0 0)"/><path class="cls-3" d="M36.65,9.34c-.17-.08-.27-.09-.45.14l-.15.22,1.37,1c.13.09.2.09.3-.05l.25.27-.6.82L37,11.61c.11-.15.08-.22,0-.31l-1.38-1-.16.22c-.17.23-.13.33,0,.46l-.22.21-.5-.47,1.45-2,.59.34Z" transform="translate(0 0)"/><path class="cls-3" d="M40.79,8l-.74.69-.3-.21c.1-.09.11-.15,0-.23l-.19-.1-.72.67.08.21c.07.15.14.13.25,0l.19.32-.64.59-.3-.21c.12-.11.13-.17.07-.33l-.69-1.63c0-.09-.11-.12-.24,0l-.19-.31,1.06-1,.31.21c-.13.12-.12.17,0,.23l1.59.8a.23.23,0,0,0,.33,0Zm-2.34-.44A4.16,4.16,0,0,1,38,7.27s.2.32.27.45l.29.7.52-.48Z" transform="translate(0 0)"/><path class="cls-3" d="M42.32,7.09a2.32,2.32,0,0,1-1.07.35l-.19-.58.21-.13a.69.69,0,0,0,.82,0c.18-.12.32-.32.2-.52s-.28-.17-.7,0-.94.24-1.23-.23,0-1,.49-1.31a2.37,2.37,0,0,1,1-.35l.17.55-.2.13a.65.65,0,0,0-.71,0c-.21.13-.3.31-.2.47s.26.14.58,0c.57-.23,1-.3,1.37.22s0,1-.51,1.36" transform="translate(0 0)"/><path class="cls-3" d="M50,3.46c-.18,0-.21.09-.19.23l0,.21c0,.15.05.18.14.16l0,.35a6.63,6.63,0,0,1-1.05.33,1.33,1.33,0,0,1-1.67-1.2,1.34,1.34,0,0,1,1.29-1.6,2.1,2.1,0,0,1,1.09.15l-.07.63-.24,0a.57.57,0,0,0-.65-.32c-.5.07-.73.39-.64,1s.35.87.84.8a.86.86,0,0,0,.34-.12l0-.34c0-.15-.06-.2-.25-.17h0l0-.36L50,3.1l.12.35Z" transform="translate(0 0)"/><path class="cls-3" d="M52.36,4.67a1.26,1.26,0,0,1-1.29-1.53,1.41,1.41,0,1,1,2.82.23,1.27,1.27,0,0,1-1.53,1.3m.19-2.33c-.43,0-.65.19-.7.86s.13.94.55,1,.65-.18.71-.86-.12-.93-.56-1" transform="translate(0 0)"/><path class="cls-3" d="M56.9,3.49c0-.19,0-.29-.29-.37l-.26-.07L55.9,4.7c0,.15,0,.21.15.26l-.17.33L54.9,5l0-.37c.18,0,.23,0,.27-.14l.45-1.65-.26-.08c-.28-.07-.35,0-.43.17l-.27-.13.25-.64,2.37.65-.1.68Z" transform="translate(0 0)"/><path class="cls-3" d="M59.77,7l-.91-.46.1-.36c.16.08.22.05.28-.09l.28-.55-.92-.47-.28.55c-.07.13-.06.2.09.28l-.23.29-.9-.46.09-.36c.16.08.22,0,.29-.09l.73-1.43c.07-.13.06-.2-.1-.28l.23-.29.91.46-.1.36c-.16-.08-.21,0-.28.09l-.23.44.93.47L60,4.66c.07-.14.07-.2-.1-.28l.24-.29.9.46-.09.36c-.16-.08-.22,0-.29.09L59.9,6.43c-.07.13-.06.2.1.28Z" transform="translate(0 0)"/><path class="cls-3" d="M61.5,8.37a1.26,1.26,0,0,1-.19-2,1.25,1.25,0,0,1,2-.2,1.26,1.26,0,0,1,.2,2,1.26,1.26,0,0,1-2,.2M63,6.57c-.33-.28-.64-.22-1.07.3s-.43.84-.1,1.11.64.22,1.07-.3.43-.84.1-1.11" transform="translate(0 0)"/><path class="cls-3" d="M64,10.89l-.84-1.05.23-.29c.11.14.18.13.3,0l1.25-1c.12-.09.14-.16,0-.3l.33-.16.78,1c.43.52.48,1,.1,1.28a.65.65,0,0,1-.66,0,.7.7,0,0,1-.21.83c-.4.32-.88.16-1.31-.36m.65-1.13-.61.5.24.31a.39.39,0,0,0,.59.09.4.4,0,0,0,0-.61ZM65,9.49l.2.25c.17.21.36.23.51.1s.18-.29,0-.5l-.21-.26Z" transform="translate(0 0)"/><path class="cls-3" d="M68.27,13.73l-1.13.57c-.52.27-1.06,0-1.4-.66s-.24-1.27.28-1.53l1.13-.58c.14-.07.17-.13.09-.29l.36-.09.47.93-.28.23c-.08-.16-.15-.17-.29-.1l-1.14.58a.43.43,0,0,0-.15.64c.16.31.39.39.62.27L68,13.12c.14-.07.17-.13.09-.29l.36-.09.43.85-.28.24c-.08-.16-.15-.18-.29-.1" transform="translate(0 0)"/><path class="cls-3" d="M67.39,18.26l-.21-.78c.27-.49,1-.39.89-.93L68,16.23l-.51.14c-.15,0-.19.08-.15.26H67l-.26-1,.33-.17c0,.18.11.2.26.16l1.55-.41c.15,0,.19-.09.15-.26l.37,0,.35,1.34c.17.66,0,1.11-.49,1.24a.71.71,0,0,1-.8-.33.72.72,0,0,1-.46.61c-.21.1-.27.16-.22.36l0,.06Zm1.89-2-.1-.39-.77.2.1.38c.08.29.27.4.5.34s.34-.24.27-.53" transform="translate(0 0)"/><path class="cls-3" d="M68.7,21.64c0-.19-.07-.23-.21-.22h-.22c-.14,0-.17,0-.17.13l-.34,0a6.25,6.25,0,0,1-.25-1.08,1.42,1.42,0,1,1,2.83-.14,2.1,2.1,0,0,1-.24,1.08l-.62-.13V21a.57.57,0,0,0,.37-.62c0-.5-.32-.76-1-.72s-.9.27-.87.76a.84.84,0,0,0,.1.36l.33,0c.15,0,.21-.05.2-.24v-.05l.37.06,0,1.06-.36.09Z" transform="translate(0 0)"/><path class="cls-3" d="M67.21,24.73l.33-2.1.36,0c0,.18,0,.23.18.25l1.58.24c.16,0,.22,0,.24-.18l.35.13-.31,2-.65-.1v-.29c.22,0,.27-.05.32-.35l.07-.47-.66-.1-.06.42c0,.18,0,.26.13.28l-.11.28-.65-.1,0-.3c.15,0,.19,0,.22-.22l.06-.43-.71-.11-.1.65c0,.28,0,.35.21.41l-.1.29Z" transform="translate(0 0)"/><path class="cls-3" d="M68.11,28.89l-2-.77.2-.51,1.85-.53a2.22,2.22,0,0,1,.35-.06l-.3-.09-.9-.34c-.14-.05-.21,0-.27.12l-.31-.19L67,25.7l.36.05c-.06.16,0,.22.12.28l1.5.56c.15.06.21,0,.28-.13l.31.2-.28.74-1.68.49c-.14,0-.36.05-.36.05l.31.1.77.29c.14.05.21,0,.27-.13l.31.2-.31.82-.36,0c.06-.17,0-.22-.12-.28" transform="translate(0 0)"/><path class="cls-3" d="M65,29.91a2.19,2.19,0,0,1,.81-.79l.42.44-.13.21a.68.68,0,0,0-.73.36.38.38,0,0,0,0,.55c.17.11.33,0,.63-.31s.74-.62,1.21-.32.46.86.13,1.39a2.39,2.39,0,0,1-.72.74l-.4-.43.13-.2a.67.67,0,0,0,.63-.33c.13-.21.13-.42,0-.52s-.3,0-.52.25c-.42.46-.81.73-1.33.4A1,1,0,0,1,65,29.91" transform="translate(0 0)"/><path class="cls-3" d="M63.05,32.49l.68-.76.32.18c-.11.14-.1.2,0,.3l1.2,1.07c.12.1.19.11.3,0l.22.29-.68.77-.32-.18c.12-.14.11-.2,0-.31l-1.2-1.06c-.11-.1-.18-.11-.3,0Z" transform="translate(0 0)"/><path class="cls-3" d="M61.35,34a2.45,2.45,0,0,1,1-.48l.25.56-.19.15a.68.68,0,0,0-.81.11.37.37,0,0,0-.14.54c.12.15.3.13.7-.09a.9.9,0,0,1,1.24.08c.34.43.16,1-.33,1.36a2.4,2.4,0,0,1-.92.46l-.24-.53.19-.15a.65.65,0,0,0,.7-.11c.2-.15.26-.35.15-.49s-.29-.1-.58.06c-.55.3-1,.43-1.38-.05s-.14-1,.33-1.42" transform="translate(0 0)"/><path class="cls-3" d="M46.57,40l-1.36-.39,0-.37.17,0c.18,0,.24,0,.28-.14l.4-1.39a.86.86,0,0,1-.54,0l.11-.4a1,1,0,0,0,.79-.3l.56.16-.61,2.11c0,.14,0,.21.17.26l.18.05Z" transform="translate(0 0)"/><path class="cls-3" d="M49.18,40.5c-.75-.07-1.21-.42-1.16-.88s.37-.58.74-.7c-.3-.17-.55-.38-.52-.7s.51-.64,1.21-.57,1.1.38,1.06.78-.3.48-.63.59c.34.19.63.44.59.83s-.56.72-1.29.65m.12-1.3c-.3.11-.53.26-.55.49s.18.37.47.39.51-.09.53-.29-.17-.42-.45-.59m.11-1.14c-.25,0-.42.06-.44.24s.14.33.37.46c.25-.09.43-.21.45-.39s-.15-.29-.38-.31" transform="translate(0 0)"/><path class="cls-3" d="M52.63,40.51a1.57,1.57,0,0,1-.64-.09L52,40a1.56,1.56,0,0,0,.5,0,.83.83,0,0,0,.83-.78.84.84,0,0,1-.62.31.93.93,0,0,1-1.14-.84c-.05-.58.36-1,1.08-1.1A1.15,1.15,0,0,1,54,38.81a1.41,1.41,0,0,1-1.32,1.7m0-2.42a.49.49,0,0,0-.46.6.46.46,0,0,0,.53.48.52.52,0,0,0,.5-.6.49.49,0,0,0-.57-.48" transform="translate(0 0)"/><path class="cls-3" d="M56.94,39.64,55.57,40l-.17-.33.18-.05c.18,0,.21-.11.17-.25L55.38,38a.92.92,0,0,1-.45.29l-.11-.4a.91.91,0,0,0,.52-.66l.56-.15.56,2.13c0,.14.11.18.28.13l.18,0Z" transform="translate(0 0)"/><path class="cls-3" d="M1.3,57.23c0-.49,0-.79,0-2.07,0-1,0-1.83,0-3l-.05-.06L0,52.05v-.44H3.69v.44l-1,.06,0,.06c0,1,0,3.06,0,5,0,1.63.38,2.72,2.09,2.72s2.32-1,2.32-3c0-1.68,0-3.5-.06-4.76l0-.06-1.19-.06v-.44H9.11v.44l-1.27.06,0,.06c0,1.38,0,3.28,0,4.88,0,2.22-1,3.41-3.2,3.41S1.3,59.36,1.3,57.23" transform="translate(0 0)"/><path class="cls-3" d="M10.21,59.89l1.26-.06,0,0c0-1.39,0-2.41,0-3.7s0-2,0-3.91l0-.06-1.26-.06v-.44h2.46c1.58,2.21,3.38,4.79,4.67,6.64h0c0-2.48-.05-4.82-.07-6.08l-.06-.06-1.18-.06v-.44h3.42v.44l-1.27.06-.05.06c0,1.38,0,2.4,0,5.64V60.4h-.63c-1.6-2.28-3.51-4.95-5.14-7.28h0c0,3,0,5.36.08,6.66l0,0,1.19.06v.44H10.21Z" transform="translate(0 0)"/><path class="cls-3" d="M20.57,59.89l1.26-.06.06,0c0-.41,0-2.15,0-3.89s0-3.28,0-3.72l-.06-.06-1.26-.06v-.44H24.5v.44l-1.26.06,0,.06c0,.34,0,2.14,0,3.88s0,3.29,0,3.73l0,0,1.26.06v.44H20.57Z" transform="translate(0 0)"/><path class="cls-3" d="M26.18,52.09l-.78,0v-.44h3.38v.44l-1.15.05-.05,0c.73,1.88,1.58,4.14,2.43,6.32h0c.63-1.76,1.73-4.88,2.16-6.33l0,0-1-.05v-.44H34v.44l-.75,0c-.68,1.7-2.23,5.72-3.25,8.37h-.35c-1.33-3.23-2.48-6.05-3.44-8.37" transform="translate(0 0)"/><path class="cls-3" d="M34.87,59.89l1.27-.06,0,0c0-.6,0-2.15,0-3.89s0-3.21,0-3.72l0-.06-1.27-.06v-.44h5.67l.51-.22h.19l.09,2.83h-.26c-.46-1.31-.88-1.95-1.1-2l-2.44-.13,0,.06c0,.6,0,2,0,3.41.59,0,1.85,0,2.19-.06l0,0,.46-.91h.25c0,.36,0,.92,0,1.27s0,1.06,0,1.44h-.25l-.46-1.07,0,0c-.4,0-1.55,0-2.19,0,0,1.64,0,3,0,3.62l0,.06,2.64-.14c.22,0,.8-.54,1.26-2.07h.3c-.17,2.52-.21,2.73-.42,2.73H34.87Z" transform="translate(0 0)"/><path class="cls-3" d="M43.22,59.89l1.29-.06.05,0c0-.38,0-2.15,0-3.89s0-3.14,0-3.72l-.05-.06-1.29-.06v-.44l3.06,0a7.47,7.47,0,0,1,2.09.2,2.17,2.17,0,0,1,1.78,2.06,2.3,2.3,0,0,1-1.92,2.22v0a25.57,25.57,0,0,1,1.67,2.77c.32.57.63,1,1.05,1h.29v.44H49.3l0,0c-.48-1-.81-1.76-1.63-3.2a4.67,4.67,0,0,0-.51-.77,8.72,8.72,0,0,1-1.28.09c0,1.54,0,3,0,3.38l.06,0,1.19.06v.44H43.22Zm5.54-6a1.55,1.55,0,0,0-.89-1.51,3.34,3.34,0,0,0-1.54-.25H45.9l0,0c0,.56,0,2.25,0,3.76,2.24-.06,2.93-.79,2.93-2" transform="translate(0 0)"/><path class="cls-3" d="M52.85,57.6h.3c.45,1.65,1.19,2.33,2.1,2.33A1.62,1.62,0,0,0,57,58.29c0-2.25-4-1.68-4-4.52a2.36,2.36,0,0,1,2.58-2.3,5.29,5.29,0,0,1,1.66.3l.38-.38h.25L58,54.22h-.27C57.14,52.64,56.43,52,55.55,52a1.34,1.34,0,0,0-1.42,1.35c0,2.16,4,1.83,4,4.55,0,1.31-1,2.56-3,2.56a3.32,3.32,0,0,1-1.79-.5l-.25.5h-.28Z" transform="translate(0 0)"/><path class="cls-3" d="M59.84,59.89l1.27-.06,0,0c0-.41,0-2.15,0-3.89s0-3.28,0-3.72l0-.06-1.27-.06v-.44h3.93v.44l-1.25.06-.05.06c0,.34,0,2.14,0,3.88s0,3.29,0,3.73l.05,0,1.25.06v.44H59.84Z" transform="translate(0 0)"/><path class="cls-3" d="M66.65,59.89,68,59.83l0,0c0-.48,0-2.15,0-3.89s0-3.18,0-3.63l0-.07H66.51c-.27,0-.59.47-1.12,2h-.26l.1-2.83h.24l.37.22h5.8l.37-.22h.24l.1,2.83h-.26c-.54-1.58-.85-2-1.12-2H69.43l0,.07c0,.31,0,2.05,0,3.79s0,3.26,0,3.73l0,0,1.43.06v.44H66.65Z" transform="translate(0 0)"/><path class="cls-3" d="M75.84,59.89l1.28-.06,0,0c0-1,0-1.57,0-3.34-1.07-1.63-2.25-3.5-2.83-4.35l-.87,0v-.44h3.3v.44l-.93.05,0,0c.63,1.06,1.52,2.55,2.21,3.61h0c.71-1.26,1.54-2.78,2-3.62l0,0-.9-.05v-.44h2.79v.44l-.79,0c-.75,1.1-1.73,2.83-2.63,4.31,0,1.79,0,2.21,0,3.38l.06,0,1.31.06v.44h-4Z" transform="translate(0 0)"/><path class="cls-3" d="M85.93,56.09c0-2.93,1.8-4.62,4.08-4.62,2.57,0,4.06,1.81,4.06,4.36,0,2.94-1.8,4.63-4.08,4.63-2.58,0-4.06-1.81-4.06-4.37M92.67,56c0-2.61-1-3.91-2.66-3.91s-2.69,1.3-2.69,3.91,1,3.92,2.67,3.92,2.68-1.31,2.68-3.92" transform="translate(0 0)"/><path class="cls-3" d="M95.56,59.89l1.26-.08.05-.05c0-.45,0-2.13,0-3.87s0-3.27,0-3.72l-.05-.06-1.26-.06v-.44h5.69l.51-.22H102l.09,2.83h-.26c-.46-1.31-.88-2-1.1-2l-2.46-.11,0,.06c0,.38,0,2,0,3.41.58,0,1.85,0,2.16-.06l0,0,.46-.91h.25c0,.36,0,.92,0,1.27s0,1.15,0,1.53h-.25l-.49-1.16,0,0c-.37,0-1.5,0-2.13,0,0,1.64,0,3.1,0,3.63l0,.05,1.39.08v.44H95.56Z" transform="translate(0 0)"/><path class="cls-3" d="M4.21,71.47A4.22,4.22,0,0,1,8.64,67a6.54,6.54,0,0,1,2,.3l.42-.38h.19l.1,2.83h-.28C10.44,68,9.52,67.5,8.57,67.5c-1.5,0-3,1.13-3,3.84,0,2.12,1.06,4,3.25,4,.63,0,1.32-.18,1.32-.39,0-.43,0-1.61,0-2.61l-.05,0-1.26-.06v-.44h3.61v.44l-.93.06,0,0c0,.83,0,1.76,0,2.76a4,4,0,0,1-2.7.82,4.23,4.23,0,0,1-4.54-4.49" transform="translate(0 0)"/><path class="cls-3" d="M14.07,71.6c0-2.94,1.8-4.63,4.08-4.63,2.57,0,4.06,1.81,4.06,4.37,0,2.93-1.8,4.62-4.08,4.62-2.58,0-4.06-1.8-4.06-4.36m6.74-.13c0-2.61-1-3.92-2.66-3.92s-2.69,1.31-2.69,3.92,1,3.91,2.67,3.91,2.68-1.3,2.68-3.91" transform="translate(0 0)"/><path class="cls-3" d="M25.48,75.4l1.38-.07.05,0c0-.48,0-2.15,0-3.89s0-3.18,0-3.63l0-.06H25.34c-.28,0-.6.46-1.13,2H24l.11-2.83h.23l.37.22h5.8l.38-.22h.23l.1,2.83h-.25c-.55-1.57-.86-2-1.13-2H28.25l0,.06c0,.31,0,2,0,3.8s0,3.25,0,3.72l.05,0,1.42.07v.44H25.48Z" transform="translate(0 0)"/><path class="cls-3" d="M32.53,75.4l1.27-.07.05,0c0-.49,0-2.15,0-3.89s0-3.32,0-3.72l-.05,0-1.27-.07v-.44h3.75v.44l-1.07.07-.06,0c0,.4,0,1.92,0,3.37h4.27c0-1.6,0-3.07,0-3.37l-.05,0-1.07-.07v-.44H42v.44l-1.27.07-.05,0c0,.39,0,2.14,0,3.89s0,3.15,0,3.72l.05,0L42,75.4v.44H38.23V75.4l1.07-.07.05,0c0-.44,0-2,0-3.57H35.12q0,2.46,0,3.57l.06,0,1.07.07v.44H32.53Z" transform="translate(0 0)"/><path class="cls-3" d="M43.07,75.4l1.27-.07,0,0c0-.6,0-2.15,0-3.89s0-3.2,0-3.72l0,0-1.27-.07v-.44h5.68l.5-.22h.19l.09,2.83h-.25c-.47-1.3-.88-2-1.1-2l-2.44-.13,0,.07c0,.59,0,2,0,3.41.58,0,1.85,0,2.18-.07l0-.05.47-.9h.24c0,.36,0,.91,0,1.26s0,1.06,0,1.45h-.24l-.47-1.07,0-.06-2.18,0c0,1.64,0,3,0,3.61l0,.07,2.63-.14c.22,0,.8-.55,1.27-2.07h.29c-.16,2.52-.2,2.73-.42,2.73H43.07Z" transform="translate(0 0)"/><path class="cls-3" d="M51.42,75.4l1.27-.07.05,0c0-1.38,0-2.4,0-3.7s0-2,0-3.91l-.05,0-1.27-.07v-.44h2.47c1.57,2.21,3.37,4.8,4.66,6.64h0c0-2.48,0-4.81-.08-6.08l0,0-1.19-.07v-.44h3.42v.44l-1.26.07-.05,0c0,1.38,0,2.4,0,5.65V75.9h-.64c-1.6-2.27-3.51-5-5.14-7.27h0c0,3,0,5.36.07,6.65l0,0,1.19.07v.44H51.42Z" transform="translate(0 0)"/><path class="cls-3" d="M61.78,75.4l1.27-.07.05,0c0-.45,0-2.15,0-3.89s0-3.15,0-3.72l-.05,0-1.27-.07v-.44l2.82,0a7.71,7.71,0,0,1,2.25.26,2,2,0,0,1,1.64,1.92,2,2,0,0,1-1.58,2v0c1.37.07,2.19.87,2.19,1.92,0,1.75-1.58,2.67-4.09,2.67l-3.23,0Zm3.4-4.32c1.52,0,1.91-.72,1.91-1.72a1.51,1.51,0,0,0-.77-1.47,3.27,3.27,0,0,0-1.53-.28h-.33l0,.06c0,.67-.06,1.94,0,3.4Zm2.52,2.27c0-1.22-.84-1.7-2-1.7H64.37c0,1.64,0,2.94,0,3.63l.06,0h.63c1.75,0,2.6-.72,2.6-2" transform="translate(0 0)"/><path class="cls-3" d="M71.89,72.73c0-.49,0-.78,0-2.06,0-1,0-1.84,0-3l-.05,0-1.24-.07v-.44h3.7v.44l-1,.07,0,0c0,1,0,3.06,0,5,0,1.63.38,2.73,2.09,2.73s2.32-1,2.32-3c0-1.68,0-3.5,0-4.77l-.06,0-1.18-.07v-.44h3.42v.44l-1.27.07,0,0c0,1.38,0,3.28,0,4.88,0,2.23-1,3.41-3.21,3.41s-3.25-1.09-3.25-3.23" transform="translate(0 0)"/><path class="cls-3" d="M80.79,75.4l1.29-.07,0,0c0-.38,0-2.15,0-3.89s0-3.14,0-3.72l0,0-1.29-.07v-.44l3.06,0a7,7,0,0,1,2.09.21,2.16,2.16,0,0,1,1.79,2,2.29,2.29,0,0,1-1.93,2.22v0a25.12,25.12,0,0,1,1.67,2.76c.32.57.63,1,1.06,1l.28,0v.44H86.87l-.05-.06c-.48-1-.81-1.75-1.63-3.2a4,4,0,0,0-.51-.76,10.36,10.36,0,0,1-1.28.09c0,1.53,0,3,0,3.37l0,0,1.19.07v.44H80.79Zm5.54-6a1.55,1.55,0,0,0-.89-1.51,3.46,3.46,0,0,0-1.54-.24h-.43l0,0c0,.56,0,2.25,0,3.76,2.25-.06,2.93-.78,2.93-2" transform="translate(0 0)"/><path class="cls-3" d="M90.1,71.47A4.22,4.22,0,0,1,94.53,67a6.49,6.49,0,0,1,2,.3l.42-.38h.2l.09,2.83H97c-.65-1.73-1.57-2.22-2.52-2.22-1.5,0-3,1.13-3,3.84,0,2.12,1.06,4,3.25,4,.64,0,1.32-.18,1.32-.39,0-.43,0-1.61,0-2.61l-.06,0-1.26-.06v-.44h3.61v.44l-.93.06,0,0c0,.83,0,1.76,0,2.76a4,4,0,0,1-2.7.82,4.23,4.23,0,0,1-4.54-4.49" transform="translate(0 0)"/></g></g></g></svg>