<svg xmlns="http://www.w3.org/2000/svg" xmlns:xlink="http://www.w3.org/1999/xlink" viewBox="0 0 170.36 22.36"><defs><style>.cls-1{fill:none;}.cls-2{clip-path:url(#clip-path);}.cls-3{fill:#231f20;}</style><clipPath id="clip-path" transform="translate(0 0)"><rect class="cls-1" width="170.36" height="22.36"/></clipPath></defs><g id="Layer_2" data-name="Layer 2"><g id="Layer_1-2" data-name="Layer 1"><g class="cls-2"><path class="cls-3" d="M5.46,5.2A8.18,8.18,0,0,0,2.91,11,8.28,8.28,0,0,0,11,19.45a8.26,8.26,0,0,0,8.45-8.09,8.28,8.28,0,0,0-8.09-8.45A8.18,8.18,0,0,0,5.46,5.2M11,18.82A7.65,7.65,0,0,1,5.89,5.66a7.54,7.54,0,0,1,5.45-2.12A7.64,7.64,0,1,1,11,18.82" transform="translate(0 0)"/><path class="cls-3" d="M3.45,3.11a11.18,11.18,0,1,0,18.91,8.31A11.17,11.17,0,0,0,3.45,3.11M11,21.85a10.67,10.67,0,1,1,10.9-10.44A10.68,10.68,0,0,1,11,21.85" transform="translate(0 0)"/><path class="cls-3" d="M13.4,17.83C9.25,18.57,5.93,17,5.32,15c-.39-1.29.18-1.57.27-2.5-.72.38-.85-.62-.22-.7s1,.61.65,1.55c-.47,1.35.35,2,.58,1.9a1.41,1.41,0,0,1,.14-.31c-.57-.73-.33-1.78.63-1.86.4,0,.36.25.08.29-.73.1-.7.93-.39,1a.21.21,0,0,0,.17-.07c0-.16.1-.4.29-.36.43.11.27.65,0,.7a3.18,3.18,0,0,0-.28,1c0,.24.22.29.35.15a1.37,1.37,0,0,0,.22-.62c-.07-.31.08-.54.34-.43s.2.35,0,.57A4.69,4.69,0,0,0,8,16.1c0,.21.3.19.4.08a4.92,4.92,0,0,0,.24-1,.36.36,0,0,1,.22-.58c.37,0,.29.47.18.6.11.4-.06.84,0,1a.32.32,0,0,0,.5.07c.13-.14,0-.45,0-.8-.13-.31,0-.55.2-.57.42,0,.3.34.22.6a3.38,3.38,0,0,0,.16.84.23.23,0,0,0,.42,0,3,3,0,0,0-.1-.75c-.18-.42,0-.53.13-.55s.36.07.33.49a6.81,6.81,0,0,0,.26.83.17.17,0,0,0,.33,0c.06-.18-.06-.39-.19-.68-.3-.29,0-.52.14-.53s.43,0,.38.48c.09.28.15.53.21.67a.25.25,0,0,0,.4.08c.1-.11-.09-.3-.14-.54-.22-.22-.18-.52.07-.54s.39,0,.37.39a3.2,3.2,0,0,0,.18.55c.14.22.34.14.43-.05s-.44-.78,0-.81.48.49.61.62.23,0,.29,0-.18-.43,0-.52c.39-.18.39.27.67.28,1.22,0,2.18-2,2-2.56-.41-.24-.27-.84.08-.85.84,0,.72,1.17.08,2.56a5.8,5.8,0,0,1-3.78,2.9" transform="translate(0 0)"/><path class="cls-3" d="M15.18,8.29s0,0,0,0a8.8,8.8,0,0,0,.39-1.77.32.32,0,0,0-.22-.34A3.59,3.59,0,0,0,14.52,6a.1.1,0,0,1-.08,0,1.92,1.92,0,0,1-.12-.58c.26-.55-.21-.74-.65-.73-.29,0-.58.11-.61.33,0,.42.42.57.58.59a2.39,2.39,0,0,1,.11.46s0,0,0,0c-.74,0-1.7.14-2.19.18a.1.1,0,0,1-.12-.07c-.09-.25-.48-1.43.25-1.41.43,0,.79-.34.38-.61a2.22,2.22,0,0,0-.95-.08.48.48,0,0,0-.34.56c.05.38-.9.42-1.18.31A1.29,1.29,0,0,1,9,4.51c-.18-.33-.5-.08-.44.09.39,1.19,1.65,1,2,1,0,0,0,0,0,0,.08.43.34.88.34,1a.4.4,0,0,0,.13.61,3.17,3.17,0,0,0-.35,1.91c0,.95.44,1.88,1,1.78.77-.13.46-1.91.65-2.07a.84.84,0,0,1,.44,0s0,0,0,0c-.06.7-.23,1.82-.27,2.12a1,1,0,0,0,.09.75,3.18,3.18,0,0,1,.12,2.34.16.16,0,0,1-.06.06,1.47,1.47,0,0,0-.62.26c-.13.08-.27.27-.18.38a1.32,1.32,0,0,0,1.29-.33.17.17,0,0,0,0-.06,4.53,4.53,0,0,1,.3-.62c.41-.78.47-1.73-.09-2.16-.15-.12-.31-.24-.16-.54a4.58,4.58,0,0,0,.36-1.76.3.3,0,0,1,.51-.14A3.21,3.21,0,0,1,14.3,11a1.59,1.59,0,0,0,.14.58,6.79,6.79,0,0,1-.1,3,0,0,0,0,1,0,0,2.38,2.38,0,0,0-.55.24c-.15.11-.21.25-.14.33.2.23,1.13,0,1.2-.29.17-.66,1.42-2.19.55-3.16-.4-.45-.4-.27-.4-.5s.25-.7.31-1.15-.24-.93-.17-1.2h0a2.36,2.36,0,0,1,.64.21c.06,0,.16,0,.18-.22s-.64-.51-.77-.56m-3.55,2c-.36,0-.5-2.24-.13-2.24s.37,2.24.13,2.24M12.81,7a8.75,8.75,0,0,1,.17.92c0,.12,0,.25-.09.28a1,1,0,0,1-.6,0c-.17-.06-.06-.73-.67-.85A.31.31,0,0,0,11.76,7,.3.3,0,0,1,12,6.83a3.55,3.55,0,0,1,.55,0,.24.24,0,0,1,.22.18m1.68,1a.82.82,0,0,1-.78,0c-.18-.11-.23-.9-.13-1.12s1-.22,1.1-.08A2.26,2.26,0,0,1,14.49,8" transform="translate(0 0)"/><path class="cls-3" d="M10.46,9.06a2.56,2.56,0,0,0-2-2.15C7.2,6.7,5.26,7.2,5.05,9a2.77,2.77,0,0,0,3,3.18,2.78,2.78,0,0,0,2.43-3.16M9.33,10.42c.11,0,.3,0,.36.16s-.37.63-.56.68-.3-.14-.27-.32a1.4,1.4,0,0,1,.47-.52m.65-.6a.28.28,0,0,1-.36-.05,2,2,0,0,1,0-.78.29.29,0,0,1,.36-.09c.13.07.2.81,0,.92M9.61,8.24c0,.11-.22.16-.3.15a1.52,1.52,0,0,1-.57-.47.24.24,0,0,1,.17-.29c.27-.06.73.44.7.61M8.14,7.38a.27.27,0,0,1,0,.3,2.68,2.68,0,0,1-.85.09c-.21,0-.31-.22-.24-.33s1-.22,1.09-.06m.54,1.23c0,.19-.63.49-.76.41s-.56-.66-.48-.76c.27-.34,1.24.07,1.24.35M7,8.46a1.1,1.1,0,0,1,.39.79,1.22,1.22,0,0,1-.83.37A.89.89,0,0,1,7,8.46m-.14,1.73c0-.11.56-.5.79-.41s.46.77.31.84a1,1,0,0,1-1.1-.43m1.76.11c-.17-.07-.6-.64-.44-.79s.75-.45.84-.36c.38.35-.07,1.29-.4,1.15M6.08,8.59c-.16.08-.3,0-.32-.22s.45-.68.61-.64a.33.33,0,0,1,.19.32c0,.1-.38.49-.48.54M6,9.93c-.09.11-.29.17-.38.1a.9.9,0,0,1-.1-.79c.06-.14.39-.21.46-.06a1.74,1.74,0,0,1,0,.75m-.08.82a.32.32,0,0,1,.35-.28,1.42,1.42,0,0,1,.53.53.27.27,0,0,1-.22.32,1.1,1.1,0,0,1-.66-.57m1.46.81c-.13-.07,0-.32.15-.35a2.17,2.17,0,0,1,.72,0c.12.05.2.3.13.37s-.82.09-1,0" transform="translate(0 0)"/><polygon class="cls-3" points="7.72 1.69 7.67 2.11 7.39 2.44 7.82 2.5 8.15 2.77 8.21 2.35 8.48 2.02 8.05 1.96 7.72 1.69"/><polygon class="cls-3" points="15.7 20.16 15.36 19.91 14.93 19.88 15.18 19.53 15.21 19.1 15.55 19.36 15.98 19.38 15.73 19.73 15.7 20.16"/><polygon class="cls-3" points="6.62 20.14 6.97 19.89 7.4 19.87 7.15 19.52 7.12 19.09 6.78 19.34 6.35 19.37 6.6 19.71 6.62 20.14"/><path class="cls-3" d="M4.25,18.3l.44-.51c.2-.24.51-.22.82,0s.37.57.17.8l-.44.52c0,.06,0,.09,0,.16l-.16.11-.42-.36.1-.17c.07.06.1.06.16,0l.43-.51a.22.22,0,0,0,0-.34c-.14-.12-.27-.11-.36,0l-.44.51c0,.07,0,.1,0,.16l-.16.12L4,18.48l.09-.17c.07.06.11.05.16,0" transform="translate(0 0)"/><path class="cls-3" d="M2.85,16.59l.92-.69.17.23-.29,1a1.26,1.26,0,0,1-.07.17l.13-.11.4-.3c.07-.05.08-.08,0-.16l.17-.08.28.37-.13.15c0-.08-.09-.07-.15,0l-.68.51c-.07.05-.08.09,0,.16l-.18.08-.25-.33.26-.89a1.18,1.18,0,0,1,.08-.18l-.14.12L3,16.85c-.07,0-.08.08,0,.15l-.18.09-.28-.38.13-.14c.06.07.09.07.16,0" transform="translate(0 0)"/><path class="cls-3" d="M3.2,14.82l.24.48-.15.12c0-.08-.08-.09-.15-.05l-.76.38c-.08,0-.09.06,0,.15l-.19,0-.24-.49.15-.12c0,.09.08.09.15.06L3,15c.08,0,.09-.07,0-.15Z" transform="translate(0 0)"/><path class="cls-3" d="M1.48,13.36l1.25.12.11.37-1,.77c-.08.05-.09.08-.06.17h-.2l-.15-.52.17-.09c0,.07.06.08.12,0l.48-.36.25-.13a2,2,0,0,1-.29,0l-.6-.05c-.08,0-.1,0-.07.1l-.2,0-.13-.46.17-.1c0,.09,0,.11.14.11" transform="translate(0 0)"/><path class="cls-3" d="M2.4,11.41l.1,1.12-.18.06c0-.1,0-.12-.12-.11l-.85.08c-.08,0-.11,0-.1.12l-.19,0L1,11.59l.34,0,.05.14c-.11,0-.14.06-.12.22l0,.25.35,0,0-.22c0-.1,0-.13-.1-.13l0-.16.35,0,0,.15c-.08,0-.09.05-.08.14l0,.23.38,0,0-.34c0-.15-.06-.17-.17-.18l0-.16Z" transform="translate(0 0)"/><path class="cls-3" d="M2.56,9.44l-.05.43c-.23.19-.58,0-.62.29l0,.17.28,0c.08,0,.11,0,.12-.1l.19.06-.06.54-.2,0c0-.1,0-.12-.09-.13l-.85-.09c-.08,0-.11,0-.12.1L1,10.69,1,10c0-.35.2-.54.47-.51a.37.37,0,0,1,.34.31.38.38,0,0,1,.34-.21c.12,0,.16,0,.18-.14v0ZM1.25,10l0,.22.41,0,0-.2c0-.16,0-.25-.17-.27a.21.21,0,0,0-.24.21" transform="translate(0 0)"/><path class="cls-3" d="M2.86,8.51A1.2,1.2,0,0,1,2.54,9l-.27-.17,0-.13a.36.36,0,0,0,.33-.28c0-.11,0-.24-.1-.28s-.17,0-.28.25-.3.41-.58.32S1.33,8.35,1.43,8a1.3,1.3,0,0,1,.28-.48L2,7.73l0,.12a.33.33,0,0,0-.27.25c0,.13,0,.23.08.26s.15,0,.24-.19.31-.48.62-.38.37.41.27.72" transform="translate(0 0)"/><path class="cls-3" d="M3.5,7l-.25.48-.18,0c0-.09,0-.12,0-.16l-.76-.38c-.07,0-.1,0-.15,0L2,6.77l.25-.49.19.06c0,.08,0,.11,0,.15l.76.39c.07,0,.11,0,.15-.06Z" transform="translate(0 0)"/><path class="cls-3" d="M3.57,5c-.09,0-.15,0-.24.07l-.08.12L4,5.67c.07,0,.1,0,.16,0l.13.15L4,6.22l-.18-.08c.06-.07,0-.11,0-.15L3,5.45l-.09.11c-.09.13-.06.18,0,.25l-.12.11-.27-.25.77-1,.32.18Z" transform="translate(0 0)"/><path class="cls-3" d="M5.76,4.25l-.39.37L5.21,4.5s.06-.08,0-.12l-.1,0-.38.35,0,.11c0,.09.08.08.13,0L5,5l-.33.31-.16-.11c.06-.06.07-.09,0-.17l-.36-.86c0-.05-.06-.07-.13,0L3.93,4l.56-.52.16.11c-.07.07-.06.1,0,.12l.84.43a.12.12,0,0,0,.17,0ZM4.52,4,4.3,3.85a2.64,2.64,0,0,1,.14.24l.16.37.27-.26Z" transform="translate(0 0)"/><path class="cls-3" d="M6.57,3.75A1.16,1.16,0,0,1,6,3.94l-.1-.31L6,3.56a.35.35,0,0,0,.43,0c.1-.06.17-.17.11-.27s-.15-.09-.38,0-.49.12-.65-.13,0-.51.26-.69a1.32,1.32,0,0,1,.52-.18l.09.29-.11.07a.35.35,0,0,0-.38,0c-.11.07-.15.17-.1.25s.14.07.31,0,.55-.16.72.11,0,.55-.27.72" transform="translate(0 0)"/><path class="cls-3" d="M10.66,1.83c-.1,0-.12,0-.11.13l0,.11c0,.07,0,.09.07.08v.19a3.51,3.51,0,0,1-.56.17.7.7,0,0,1-.88-.64A.7.7,0,0,1,9.87,1a1.05,1.05,0,0,1,.58.08l0,.33-.12,0a.3.3,0,0,0-.35-.17c-.26,0-.38.2-.34.53s.19.46.45.43a.48.48,0,0,0,.18-.07l0-.18c0-.08,0-.1-.13-.09h0V1.72l.56-.08.06.19Z" transform="translate(0 0)"/><path class="cls-3" d="M11.89,2.47a.67.67,0,0,1-.69-.81A.67.67,0,0,1,12,1a.66.66,0,0,1,.69.8.67.67,0,0,1-.81.69M12,1.24c-.23,0-.35.1-.38.46s.07.49.3.51.34-.1.37-.46-.06-.49-.29-.51" transform="translate(0 0)"/><path class="cls-3" d="M14.29,1.85c0-.1,0-.16-.15-.2l-.14,0-.24.88c0,.08,0,.11.08.14l-.09.17-.52-.14v-.2c.1,0,.12,0,.14-.07l.24-.88-.13,0c-.15,0-.19,0-.23.09l-.15-.07.14-.33,1.25.34-.05.36Z" transform="translate(0 0)"/><path class="cls-3" d="M15.81,3.7l-.48-.24.05-.19c.08,0,.12,0,.15,0l.15-.29-.49-.25L15,3c0,.08,0,.11.05.15L15,3.28,14.49,3l0-.19c.09.05.12,0,.15,0L15.08,2c0-.07,0-.11-.05-.15l.12-.15.48.24-.05.19c-.09,0-.12,0-.15.05l-.12.23.49.25.12-.23c0-.08,0-.11-.06-.15L16,2.17l.48.24,0,.19c-.09-.05-.12,0-.15,0l-.39.76c0,.07,0,.11,0,.15Z" transform="translate(0 0)"/><path class="cls-3" d="M16.73,4.43a.66.66,0,0,1-.1-1,.66.66,0,0,1,1.05-.11.67.67,0,0,1,.1,1.06.66.66,0,0,1-1.05.1m.78-.95c-.17-.15-.34-.12-.56.16s-.23.44-.05.59.33.11.56-.17.23-.44.05-.58" transform="translate(0 0)"/><path class="cls-3" d="M18.07,5.76l-.45-.55.12-.15c.06.07.1.07.16,0l.66-.54c.07,0,.07-.08,0-.15l.17-.09.42.52c.22.28.25.51,0,.67a.32.32,0,0,1-.35,0,.38.38,0,0,1-.11.45c-.21.17-.47.08-.69-.2m.34-.59-.33.26.13.16c.1.13.22.14.31.06a.21.21,0,0,0,0-.33ZM18.59,5l.11.14c.09.11.19.12.27,0s.1-.15,0-.27l-.11-.13Z" transform="translate(0 0)"/><path class="cls-3" d="M20.31,7.27l-.6.3c-.27.14-.56,0-.74-.35s-.13-.67.15-.81l.6-.31c.07,0,.09-.07,0-.15l.19,0,.26.49-.16.13c0-.09-.07-.09-.15-.06l-.6.31c-.12.06-.16.18-.08.34s.21.2.32.14l.61-.3c.07,0,.09-.07.05-.16l.18,0,.23.45-.15.13c0-.08-.07-.09-.15-.05" transform="translate(0 0)"/><path class="cls-3" d="M19.84,9.67l-.11-.42c.15-.26.55-.2.47-.49l0-.17-.27.07c-.08,0-.1.05-.08.14h-.19l-.14-.52.17-.09c0,.1.06.11.14.09l.82-.22c.08,0,.1-.05.08-.14h.19l.19.71c.09.35,0,.59-.26.66a.37.37,0,0,1-.42-.18.35.35,0,0,1-.25.32c-.1.06-.14.09-.11.2v0Zm1-1-.05-.21-.4.1.05.21c0,.15.14.21.26.18a.21.21,0,0,0,.14-.28" transform="translate(0 0)"/><path class="cls-3" d="M20.54,11.45c0-.09,0-.11-.12-.11h-.11c-.07,0-.09,0-.09.07l-.18,0a2.56,2.56,0,0,1-.13-.57.75.75,0,1,1,1.5-.08,1.17,1.17,0,0,1-.13.57L21,11.25v-.13a.3.3,0,0,0,.2-.33c0-.27-.17-.4-.5-.38s-.48.14-.46.4a.36.36,0,0,0,.05.19h.18c.07,0,.1,0,.1-.12v0l.19,0,0,.56-.19.05Z" transform="translate(0 0)"/><path class="cls-3" d="M19.75,13.09,19.92,12h.2c0,.09,0,.12.09.13l.84.13c.08,0,.11,0,.12-.1l.19.07-.17,1.06-.34,0v-.15c.12,0,.15,0,.17-.19l0-.25-.35,0,0,.22c0,.1,0,.14.07.15l-.06.15L20.34,13l0-.16c.08,0,.1,0,.11-.11l0-.23-.38,0-.05.34c0,.15,0,.18.11.22l0,.15Z" transform="translate(0 0)"/><path class="cls-3" d="M20.22,15.3l-1.08-.41.1-.27,1-.28.19,0-.16,0-.47-.18c-.08,0-.12,0-.15.06l-.16-.1.16-.44.19,0c0,.09,0,.12.07.15l.79.3c.08,0,.11,0,.15-.07l.16.11-.15.39-.89.25-.19,0,.17.05.4.16c.08,0,.12,0,.15-.07l.16.1-.16.44-.19,0c0-.09,0-.12-.07-.14" transform="translate(0 0)"/><path class="cls-3" d="M18.58,15.83a1.34,1.34,0,0,1,.43-.42l.22.24-.07.11a.36.36,0,0,0-.39.19c-.06.1-.08.23,0,.29s.17,0,.33-.16.39-.33.64-.17a.5.5,0,0,1,.07.73,1.64,1.64,0,0,1-.38.4l-.21-.23.07-.11a.35.35,0,0,0,.33-.17c.07-.11.07-.22,0-.27s-.16,0-.28.13-.42.38-.7.21a.53.53,0,0,1-.07-.77" transform="translate(0 0)"/><path class="cls-3" d="M17.55,17.2l.36-.4.17.09c-.06.08-.06.11,0,.16l.64.57c.06.05.09.06.16,0l.11.15-.36.41-.17-.1c.07-.07.06-.1,0-.16l-.64-.56c-.06-.06-.09-.06-.16,0Z" transform="translate(0 0)"/><path class="cls-3" d="M16.65,18a1.25,1.25,0,0,1,.54-.26l.13.3-.1.08a.36.36,0,0,0-.43.05c-.09.08-.15.19-.07.29s.16.07.37-.05a.48.48,0,0,1,.66.05c.18.22.08.51-.18.71a1.21,1.21,0,0,1-.48.25L17,19.14l.1-.08a.33.33,0,0,0,.37-.06c.1-.08.14-.18.08-.26s-.15,0-.31,0-.53.23-.73,0-.07-.55.18-.75" transform="translate(0 0)"/><path class="cls-3" d="M8.82,21.19,8.1,21v-.19l.1,0c.09,0,.12,0,.15-.07L8.57,20a.51.51,0,0,1-.29,0l.06-.21a.51.51,0,0,0,.42-.16l.29.08-.32,1.12c0,.08,0,.11.09.14l.1,0Z" transform="translate(0 0)"/><path class="cls-3" d="M10.2,21.44c-.4,0-.63-.22-.61-.46s.2-.31.39-.38c-.16-.09-.29-.2-.27-.37s.26-.33.64-.3.58.2.56.42-.16.25-.34.31c.18.1.34.23.32.44s-.3.38-.69.34m.07-.69c-.16.06-.28.14-.29.26s.09.2.24.21.28,0,.29-.15-.1-.23-.24-.32m.05-.6c-.13,0-.22,0-.23.13s.07.17.2.24.23-.11.23-.2-.07-.16-.2-.17" transform="translate(0 0)"/><path class="cls-3" d="M12,21.44a.74.74,0,0,1-.34,0l0-.21a.72.72,0,0,0,.26,0,.43.43,0,0,0,.44-.41.45.45,0,0,1-.32.17.51.51,0,0,1-.61-.45c0-.3.19-.54.57-.58a.61.61,0,0,1,.72.61.74.74,0,0,1-.7.89m0-1.28a.27.27,0,0,0-.25.32.26.26,0,0,0,.28.26.28.28,0,0,0,.27-.32.27.27,0,0,0-.3-.26" transform="translate(0 0)"/><path class="cls-3" d="M14.31,21l-.73.19L13.5,21l.09,0c.1,0,.11-.06.09-.14l-.2-.74a.46.46,0,0,1-.23.16L13.19,20a.47.47,0,0,0,.28-.34l.29-.08.3,1.12c0,.08,0,.1.15.07l.09,0Z" transform="translate(0 0)"/><path class="cls-3" d="M27.68,12.33c0-.36,0-.58,0-1.51,0-.75,0-1.35,0-2.2l0,0-.9-.05V8.22h2.7v.32l-.77.05,0,0c0,.71,0,2.24,0,3.67,0,1.19.27,2,1.53,2s1.69-.77,1.69-2.18c0-1.23,0-2.56,0-3.49l0,0-.87-.05V8.22h2.5v.32l-.92.05,0,0c0,1,0,2.41,0,3.58,0,1.62-.76,2.49-2.35,2.49a2.11,2.11,0,0,1-2.38-2.36" transform="translate(0 0)"/><path class="cls-3" d="M34.06,14.28l.92,0,0,0c0-1,0-1.76,0-2.7s0-1.47,0-2.87l0,0-.92-.05V8.22h1.8c1.16,1.61,2.47,3.51,3.41,4.86h0c0-1.82,0-3.53,0-4.46l0,0-.87-.05V8.22h2.51v.32l-.93.05,0,0c0,1,0,1.76,0,4.14v1.89h-.46C38.21,13,36.81,11,35.62,9.32h0c0,2.22,0,3.93,0,4.87l0,0,.87,0v.32h-2.5Z" transform="translate(0 0)"/><path class="cls-3" d="M41.5,14.28l.93,0,0,0c0-.29,0-1.57,0-2.84s0-2.4,0-2.73l0,0-.93-.05V8.22h2.87v.32l-.91.05,0,0c0,.26,0,1.57,0,2.85s0,2.4,0,2.72l0,0,.91,0v.32H41.5Z" transform="translate(0 0)"/><path class="cls-3" d="M45.46,8.57l-.57,0V8.22h2.48v.32l-.84,0,0,0c.53,1.38,1.15,3,1.78,4.63h0c.46-1.29,1.26-3.58,1.58-4.63l0,0-.77,0V8.22h2.09v.32l-.55,0c-.49,1.25-1.62,4.19-2.37,6.12H48c-1-2.36-1.82-4.42-2.53-6.12" transform="translate(0 0)"/><path class="cls-3" d="M51.68,14.28l.93,0,0,0c0-.43,0-1.57,0-2.84s0-2.35,0-2.73l0,0-.93-.05V8.22h4.15l.37-.16h.15l.06,2.07h-.19c-.34-1-.64-1.43-.8-1.44L53.63,8.6l0,0c0,.44,0,1.44,0,2.5.43,0,1.36,0,1.6-.05l0,0,.34-.66h.18c0,.27,0,.67,0,.93s0,.77,0,1.06h-.18l-.34-.79,0,0-1.6,0c0,1.2,0,2.16,0,2.64l0,.05,1.93-.1c.16,0,.59-.4.93-1.51h.21c-.12,1.84-.15,2-.31,2H51.68Z" transform="translate(0 0)"/><path class="cls-3" d="M57.65,14.28l1,0,0,0c0-.27,0-1.57,0-2.84s0-2.3,0-2.73l0,0-1-.05V8.22l2.24,0a5.51,5.51,0,0,1,1.53.15,1.58,1.58,0,0,1,1.31,1.5c0,.94-.64,1.38-1.41,1.63v0a20.36,20.36,0,0,1,1.22,2c.23.42.46.73.77.75h.21v.32H62.1l0,0c-.35-.71-.6-1.28-1.2-2.34a3,3,0,0,0-.37-.56,6.62,6.62,0,0,1-.94.07c0,1.12,0,2.18,0,2.46l0,0,.87,0v.32H57.65Zm4.06-4.42a1.13,1.13,0,0,0-.66-1.1,2.36,2.36,0,0,0-1.12-.18h-.31l0,0c0,.4,0,1.64,0,2.75,1.65,0,2.15-.58,2.15-1.5" transform="translate(0 0)"/><path class="cls-3" d="M64.56,12.6h.22c.33,1.21.87,1.71,1.53,1.71a1.18,1.18,0,0,0,1.27-1.2c0-1.65-2.9-1.23-2.9-3.31a1.74,1.74,0,0,1,1.89-1.69,3.89,3.89,0,0,1,1.21.22l.28-.27h.18l.06,2.07h-.2C67.7,9,67.18,8.5,66.54,8.5a1,1,0,0,0-1,1c0,1.58,3,1.34,3,3.33a1.94,1.94,0,0,1-2.19,1.87A2.43,2.43,0,0,1,65,14.33l-.19.36h-.2Z" transform="translate(0 0)"/><path class="cls-3" d="M69.54,14.28l.92,0,0,0c0-.29,0-1.57,0-2.84s0-2.4,0-2.73l0,0-.92-.05V8.22h2.87v.32l-.92.05,0,0c0,.26,0,1.57,0,2.85s0,2.4,0,2.72l0,0,.92,0v.32H69.54Z" transform="translate(0 0)"/><path class="cls-3" d="M74.38,14.28l1,0,0,0c0-.35,0-1.57,0-2.84s0-2.33,0-2.66l0,0H74.28c-.2,0-.44.34-.83,1.49h-.19l.08-2.07h.17l.27.16H78l.27-.16h.17l.08,2.07h-.19C78,9,77.74,8.64,77.54,8.64H76.41l0,0c0,.23,0,1.5,0,2.78s0,2.38,0,2.72l0,0,1,0v.32H74.38Z" transform="translate(0 0)"/><path class="cls-3" d="M81,14.28l.94,0,0,0c0-.71,0-1.14,0-2.44-.78-1.19-1.64-2.56-2.07-3.18l-.63,0V8.22h2.41v.32l-.68,0,0,0c.46.78,1.12,1.87,1.62,2.64h0c.52-.91,1.12-2,1.43-2.64l0,0-.67,0V8.22h2.05v.32l-.58,0c-.55.8-1.27,2.07-1.93,3.16,0,1.3,0,1.61,0,2.46l0,0,1,0v.32H81Z" transform="translate(0 0)"/><path class="cls-3" d="M88.06,11.5c0-2.15,1.32-3.39,3-3.39a2.89,2.89,0,0,1,3,3.2c0,2.15-1.31,3.38-3,3.38a2.89,2.89,0,0,1-3-3.19M93,11.4c0-1.91-.75-2.86-2-2.86s-2,1-2,2.86.75,2.87,2,2.87,2-1,2-2.87" transform="translate(0 0)"/><path class="cls-3" d="M95,14.28l.92-.06,0,0c0-.33,0-1.56,0-2.83s0-2.39,0-2.73l0,0L95,8.54V8.22h4.17l.36-.16h.15l.06,2.07h-.19c-.34-1-.64-1.44-.8-1.45l-1.8-.08,0,0c0,.28,0,1.44,0,2.5.42,0,1.35,0,1.58-.05l0,0,.34-.66H99c0,.27,0,.67,0,.93s0,.84,0,1.12h-.18l-.35-.85,0,0-1.56,0c0,1.2,0,2.27,0,2.65l0,0,1,.06v.32H95Z" transform="translate(0 0)"/><path class="cls-3" d="M102.74,11.4A3.09,3.09,0,0,1,106,8.11a4.83,4.83,0,0,1,1.47.22l.31-.27h.14l.07,2.07h-.2c-.47-1.27-1.14-1.63-1.84-1.63-1.1,0-2.17.82-2.17,2.81,0,1.55.78,3,2.38,3,.47,0,1-.13,1-.29,0-.32,0-1.18,0-1.91l0,0-.93,0v-.32h2.65V12l-.68,0,0,0c0,.61,0,1.29,0,2a2.87,2.87,0,0,1-2,.6,3.09,3.09,0,0,1-3.32-3.29" transform="translate(0 0)"/><path class="cls-3" d="M109.81,11.5c0-2.15,1.32-3.39,3-3.39a2.89,2.89,0,0,1,3,3.2c0,2.15-1.31,3.38-3,3.38a2.89,2.89,0,0,1-3-3.19m4.94-.1c0-1.91-.75-2.86-2-2.86s-2,1-2,2.86.74,2.87,1.94,2.87,2-1,2-2.87" transform="translate(0 0)"/><path class="cls-3" d="M118,14.28l1,0,0,0c0-.35,0-1.57,0-2.84s0-2.33,0-2.66l0,0h-1.12c-.2,0-.44.34-.83,1.49h-.18L117,8.06h.17l.27.16h4.25l.28-.16h.17l.07,2.07H122c-.39-1.16-.62-1.49-.82-1.49h-1.13l0,0c0,.23,0,1.5,0,2.78s0,2.38,0,2.72l0,0,1,0v.32H118Z" transform="translate(0 0)"/><path class="cls-3" d="M123,14.28l.93,0,0,0c0-.36,0-1.57,0-2.84s0-2.43,0-2.73l0,0L123,8.54V8.22h2.75v.32l-.79.05,0,0c0,.3,0,1.41,0,2.47h3.13c0-1.17,0-2.25,0-2.47l0,0-.79-.05V8.22H130v.32l-.92.05,0,0c0,.29,0,1.57,0,2.85s0,2.31,0,2.72l0,0,.92,0v.32h-2.74v-.32l.79,0,0,0c0-.32,0-1.49,0-2.61h-3.13q0,1.8,0,2.61l0,0,.79,0v.32H123Z" transform="translate(0 0)"/><path class="cls-3" d="M130.62,14.28l.93,0,0,0c0-.43,0-1.57,0-2.84s0-2.35,0-2.73l0,0-.93-.05V8.22h4.15l.37-.16h.14l.07,2.07h-.19c-.34-1-.65-1.43-.81-1.44l-1.78-.09,0,0c0,.44,0,1.44,0,2.5.42,0,1.35,0,1.6-.05l0,0,.33-.66h.18c0,.27,0,.67,0,.93s0,.77,0,1.06h-.18l-.33-.79,0,0-1.6,0c0,1.2,0,2.16,0,2.64l0,.05,1.92-.1c.17,0,.59-.4.93-1.51h.22c-.12,1.84-.15,2-.31,2h-4.71Z" transform="translate(0 0)"/><path class="cls-3" d="M136.59,14.28l.92,0,0,0c0-1,0-1.76,0-2.7s0-1.47,0-2.87l0,0-.92-.05V8.22h1.8c1.15,1.61,2.47,3.51,3.41,4.86h0c0-1.82,0-3.53,0-4.46l0,0-.87-.05V8.22h2.5v.32l-.92.05,0,0c0,1,0,1.76,0,4.14v1.89h-.46c-1.17-1.67-2.57-3.62-3.77-5.33h0c0,2.22,0,3.93.05,4.87l0,0,.87,0v.32h-2.5Z" transform="translate(0 0)"/><path class="cls-3" d="M144,14.28l.92,0,0,0c0-.33,0-1.57,0-2.84s0-2.31,0-2.73l0,0L144,8.54V8.22l2.06,0a5.63,5.63,0,0,1,1.64.19,1.48,1.48,0,0,1,1.21,1.41,1.44,1.44,0,0,1-1.16,1.44v0c1,.05,1.6.64,1.6,1.4,0,1.29-1.16,2-3,2l-2.36,0Zm2.48-3.16c1.12,0,1.4-.53,1.4-1.26a1.12,1.12,0,0,0-.56-1.08,2.43,2.43,0,0,0-1.12-.2H146l0,0c0,.49,0,1.42,0,2.49Zm1.85,1.66c0-.89-.62-1.24-1.45-1.24h-1c0,1.2,0,2.15,0,2.65l0,0h.47c1.27,0,1.9-.53,1.9-1.46" transform="translate(0 0)"/><path class="cls-3" d="M151.28,12.33c0-.36,0-.58,0-1.51,0-.75,0-1.35,0-2.2l0,0-.9-.05V8.22H153v.32l-.77.05,0,0c0,.71,0,2.24,0,3.67,0,1.19.27,2,1.53,2s1.69-.77,1.69-2.18c0-1.23,0-2.56,0-3.49l0,0-.87-.05V8.22H157v.32l-.93.05,0,0c0,1,0,2.41,0,3.58,0,1.62-.76,2.49-2.35,2.49a2.11,2.11,0,0,1-2.38-2.36" transform="translate(0 0)"/><path class="cls-3" d="M157.65,14.28l.95,0,0,0c0-.27,0-1.57,0-2.84s0-2.3,0-2.73l0,0-.95-.05V8.22l2.24,0a5.59,5.59,0,0,1,1.54.15,1.58,1.58,0,0,1,1.3,1.5c0,.94-.63,1.38-1.41,1.63v0a18.54,18.54,0,0,1,1.22,2c.24.42.47.73.78.75h.21v.32h-1.42l0,0c-.35-.71-.6-1.28-1.19-2.34a3,3,0,0,0-.38-.56,6.51,6.51,0,0,1-.94.07c0,1.12,0,2.18,0,2.46l0,0,.87,0v.32h-2.85Zm4.06-4.42a1.13,1.13,0,0,0-.65-1.1,2.41,2.41,0,0,0-1.13-.18h-.31l0,0c0,.4,0,1.64,0,2.75,1.65,0,2.15-.58,2.15-1.5" transform="translate(0 0)"/><path class="cls-3" d="M164.33,11.4a3.09,3.09,0,0,1,3.24-3.29,4.83,4.83,0,0,1,1.47.22l.31-.27h.14l.07,2.07h-.2c-.47-1.27-1.14-1.63-1.84-1.63-1.1,0-2.17.82-2.17,2.81,0,1.55.78,3,2.38,3,.47,0,1-.13,1-.29,0-.32,0-1.18,0-1.91l0,0-.92,0v-.32h2.64V12l-.68,0,0,0c0,.61,0,1.29,0,2a2.87,2.87,0,0,1-2,.6,3.09,3.09,0,0,1-3.32-3.29" transform="translate(0 0)"/></g></g></g></svg>