<svg xmlns="http://www.w3.org/2000/svg" xmlns:xlink="http://www.w3.org/1999/xlink" viewBox="0 0 124.9 19.31"><defs><style>.cls-1{fill:none;}.cls-2{clip-path:url(#clip-path);}.cls-3{fill:#231f20;}</style><clipPath id="clip-path" transform="translate(0 0)"><rect class="cls-1" width="124.9" height="19.31"/></clipPath></defs><g id="Layer_2" data-name="Layer 2"><g id="Layer_1-2" data-name="Layer 1"><g class="cls-2"><path class="cls-3" d="M121.21,16.17a1.69,1.69,0,0,1-.42.83,2.1,2.1,0,0,1-1.75.84c-2,0-3.37-2.23-3.37-5.65,0-3.15,1.19-5.21,3-5.21a2.73,2.73,0,0,1,2.49,2.79Zm3.69,1.22a5.41,5.41,0,0,1-.57,0c-.87,0-1.07-.31-1.07-1.59V.06L123.14,0c-1.17.47-2,.75-3.59,1.22v.45a3.26,3.26,0,0,1,.54,0c.9,0,1.12.28,1.12,1.42V7.4a3.37,3.37,0,0,0-2.56-1.2c-2.81,0-5.08,3.15-5.08,7.1,0,3.56,1.81,6,4.52,6a3.41,3.41,0,0,0,3.12-1.86V19.2l.1.08,3.59-1.44ZM101.15,19h5.17v-.41c-1.22-.09-1.61-.45-1.61-1.45V9.32c1.15-1.25,1.71-1.58,2.51-1.58,1.2,0,1.79.86,1.79,2.69v5.82c-.05,1.81-.35,2.25-1.54,2.34V19h5.07v-.41c-1.19-.14-1.46-.48-1.48-1.84V10.38c0-2.62-1.08-4.18-2.88-4.18-1.13,0-1.88.48-3.54,2.26V6.26l-.17-.06c-1.2.51-2,.81-3.37,1.26v.47a1.48,1.48,0,0,1,.66-.11c.68,0,.9.42.9,1.78v6.9c0,1.64-.29,2-1.51,2.09Zm-4.27-3.42c0,.84-.13,1.14-.64,1.48a3.54,3.54,0,0,1-1.78.61c-.85,0-1.54-1-1.54-2.14v-.11c0-1.67,1.1-2.73,4-3.87Zm3.78,1.59a1.51,1.51,0,0,1-1.08.53c-.56,0-.73-.39-.73-1.62V10.66a5.8,5.8,0,0,0-.49-2.92,3.15,3.15,0,0,0-3-1.54c-2.3,0-4.1,1.37-4.1,3.12a1.14,1.14,0,0,0,1.05,1.2,1.18,1.18,0,0,0,1.1-1.17c0-.11,0-.25,0-.45a3.46,3.46,0,0,1-.08-.66A1.59,1.59,0,0,1,95,6.87c1.2,0,1.86.81,1.86,2.31v1.7c-3.76,1.72-4.18,1.95-5.23,3a3.64,3.64,0,0,0-.88,2.43,2.68,2.68,0,0,0,2.57,3c1.07,0,2.07-.58,3.56-2,.12,1.48.56,2,1.56,2,.83,0,1.34-.33,2.2-1.39ZM83.6,19h5.76v-.41c-1.54-.09-1.81-.36-1.83-1.92V.06L87.43,0c-1.27.47-2.2.75-3.88,1.22v.45h.14c.27,0,.57-.06.76-.06.78,0,1,.39,1,1.7V16.58c0,1.51-.37,1.9-1.88,2Zm-4.35-3.42c0,.84-.12,1.14-.63,1.48a3.54,3.54,0,0,1-1.78.61c-.86,0-1.54-1-1.54-2.14v-.11c0-1.67,1.1-2.73,4-3.87ZM83,17.17A1.51,1.51,0,0,1,82,17.7c-.56,0-.73-.39-.73-1.62V10.66a5.8,5.8,0,0,0-.49-2.92,3.16,3.16,0,0,0-3-1.54c-2.29,0-4.1,1.37-4.1,3.12a1.15,1.15,0,0,0,1,1.2,1.17,1.17,0,0,0,1.1-1.17,3.36,3.36,0,0,0-.05-.45,4.37,4.37,0,0,1-.07-.66A1.59,1.59,0,0,1,77.4,6.87c1.19,0,1.85.81,1.85,2.31v1.7c-3.76,1.72-4.17,1.95-5.22,3a3.64,3.64,0,0,0-.88,2.43,2.68,2.68,0,0,0,2.56,3c1.08,0,2.08-.58,3.57-2,.12,1.48.56,2,1.56,2,.83,0,1.34-.33,2.2-1.39ZM73.83.58h-5v.53c1.34.09,1.78.39,1.78,1.17a7.12,7.12,0,0,1-.46,2L66.56,14.52l-3.68-9.4a11.24,11.24,0,0,1-1-3.09c0-.56.35-.81,1.13-.86.12,0,.39,0,.71-.06V.58h-6.5v.53c1.2.06,1.54.45,2.59,2.92l6,15.28h.37L71.59,3.7c.8-2.2,1.07-2.5,2.24-2.59Zm-22.28,13h6V11.85h-6ZM44.69,1.11c1.46.09,1.66.2,1.66.87s-.56,1.44-1.9,2.86L40.13,9.32V3.62c0-2.09.27-2.34,2.24-2.51V.58H35.44v.53c1.88.14,2.15.48,2.2,2.51V15.67c0,2.36-.3,2.67-2.2,2.81V19h6.88v-.52c-1.88-.14-2.17-.45-2.19-2.51v-5.2l.63-.59,2.59,2.93c1.85,2.11,3.17,4.06,3.17,4.73,0,.39-.32.58-1,.61a6.8,6.8,0,0,0-.69,0V19h7.45v-.52c-1.27,0-1.61-.31-3.84-3l-5.68-7,4.64-5.23c1.66-1.81,2-2,3.71-2.17V.58h-6.4ZM22.19,2.7c0-.86.24-1.09,1.27-1.09A7.43,7.43,0,0,1,28.31,3c1.91,1.51,2.91,3.9,2.91,6.91,0,3.28-1,5.62-3,6.92A8.22,8.22,0,0,1,23.46,18c-1,0-1.27-.25-1.27-1.14ZM17.55,19h6.93a9.69,9.69,0,0,0,6.91-2.47,9.84,9.84,0,0,0,2.49-6.82,9.14,9.14,0,0,0-2.08-6.2C30.14,1.59,27.48.58,24.14.58H17.55v.53c1.93.2,2.12.42,2.15,2.51V16c0,2-.32,2.37-2.15,2.51ZM0,19H6.79v-.52C5,18.31,4.66,18,4.64,16V10.24H12v5.43c0,2.36-.24,2.67-2.14,2.81V19h6.78v-.52c-1.83-.17-2.12-.51-2.15-2.51V3.62c0-2,.27-2.31,2.15-2.51V.58H9.89v.53c1.88.17,2.12.45,2.14,2.51V9H4.64V3.62c0-2,.27-2.31,2.15-2.51V.58H0v.53c1.88.17,2.12.45,2.15,2.51V15.67C2.12,18,1.9,18.34,0,18.48Z" transform="translate(0 0)"/></g></g></g></svg>