<svg xmlns="http://www.w3.org/2000/svg" xmlns:xlink="http://www.w3.org/1999/xlink" viewBox="0 0 256.7 27.15"><defs><style>.cls-1{fill:none;}.cls-2{clip-path:url(#clip-path);}.cls-3{fill:#231f20;}</style><clipPath id="clip-path" transform="translate(0 0)"><rect class="cls-1" width="256.7" height="27.15"/></clipPath></defs><g id="Layer_2" data-name="Layer 2"><g id="Layer_1-2" data-name="Layer 1"><g class="cls-2"><path class="cls-3" d="M238.81,14.08l4,12.48h5.5L256.7.47h-7.45l-3.69,11.42L241.87.47h-6.12l-3.92,12.16L227.9.47h-7.45l8.4,26.09h6Zm-28.25-7a1.49,1.49,0,0,1,1.49,1.49V18.6a1.49,1.49,0,0,1-1.49,1.49h-1.25a1.49,1.49,0,0,1-1.49-1.49v-10a1.49,1.49,0,0,1,1.49-1.49ZM209.31,0a8.57,8.57,0,0,0-8.56,8.55V18.6a8.58,8.58,0,0,0,8.56,8.55h1.25a8.58,8.58,0,0,0,8.56-8.55v-10A8.57,8.57,0,0,0,210.56,0ZM190.14,17.34A2.18,2.18,0,0,1,188,19.5h-2.47V7.65H188a2.18,2.18,0,0,1,2.16,2.16Zm7.06-7.53A9.21,9.21,0,0,0,188,.59h-9.54v26H188a9.21,9.21,0,0,0,9.22-9.22ZM166.33,26.56h6.94V.59h-7.06V12.71L158.44.59h-6.63v26h7.07V15ZM146.72.59h-7.07v26h7.07ZM118.39,14.08l4,12.48h5.49L136.28.47h-7.45l-3.69,11.42L121.45.47h-6.12l-3.92,12.16L107.49.47H100l8.4,26.09h6ZM79.83,26.56h6.94V.59H79.71V12.71L71.94.59H65.31v26h7.06V15ZM50.67,9.93V7.65h9.5V.59H43.61v26H60.17V19.5h-9.5V17h9.5V9.93ZM29.44,7.65h2.43a1.22,1.22,0,0,1,1.22,1.22A1.19,1.19,0,0,1,31.87,10H29.44Zm0,9.46h2.43a8.26,8.26,0,1,0,0-16.52H22.38v26h7.06ZM9.81,7.06A1.49,1.49,0,0,1,11.3,8.55V18.6a1.49,1.49,0,0,1-1.49,1.49H8.55A1.49,1.49,0,0,1,7.06,18.6v-10A1.49,1.49,0,0,1,8.55,7.06ZM8.55,0A8.57,8.57,0,0,0,0,8.55V18.6a8.58,8.58,0,0,0,8.55,8.55H9.81a8.57,8.57,0,0,0,8.55-8.55v-10A8.57,8.57,0,0,0,9.81,0Z" transform="translate(0 0)"/></g></g></g></svg>