<svg xmlns="http://www.w3.org/2000/svg" xmlns:xlink="http://www.w3.org/1999/xlink" viewBox="0 0 166.66 27.15"><defs><style>.cls-1{fill:none;}.cls-2{clip-path:url(#clip-path);}.cls-3{fill:#231f20;}</style><clipPath id="clip-path" transform="translate(0 0)"><rect class="cls-1" width="166.66" height="27.15"/></clipPath></defs><g id="Layer_2" data-name="Layer 2"><g id="Layer_1-2" data-name="Layer 1"><g class="cls-2"><path class="cls-3" d="M166.66,26.56V.59h-6.32L153.12,13.1,145.9.59h-6.23v26h7.06V16l4.16,7.26h4.47L159.6,16V26.56ZM127.87,24l.9,2.55h7.46l-9.46-26h-5.92l-9.5,26h7.45l.91-2.55ZM122.3,17l1.49-4,1.49,4ZM107.66,8.87A8.3,8.3,0,0,0,99.38.59H90v26H97v-4.2l3.53,4.2h9.3l-8.2-9.77a8.27,8.27,0,0,0,6-7.92M97,7.65h2.36a1.22,1.22,0,0,1,1.21,1.22A1.19,1.19,0,0,1,99.38,10H97ZM76.18,10.79v7.06h2v.75a1.49,1.49,0,0,1-1.49,1.49H74.8a1.49,1.49,0,0,1-1.49-1.49v-10A1.49,1.49,0,0,1,74.8,7.06h1.85a1.49,1.49,0,0,1,1.49,1.49v.36H85.2V8.55A8.57,8.57,0,0,0,76.65,0H74.8a8.57,8.57,0,0,0-8.55,8.55V18.6a8.58,8.58,0,0,0,8.55,8.55h1.85A8.57,8.57,0,0,0,85.2,18.6V10.79ZM53.26,7.06a1.5,1.5,0,0,1,1.5,1.49V18.6a1.5,1.5,0,0,1-1.5,1.49H52a1.49,1.49,0,0,1-1.49-1.49v-10A1.49,1.49,0,0,1,52,7.06ZM52,0a8.57,8.57,0,0,0-8.55,8.55V18.6A8.57,8.57,0,0,0,52,27.15h1.25a8.58,8.58,0,0,0,8.56-8.55v-10A8.57,8.57,0,0,0,53.26,0ZM38.93,8.87A8.3,8.3,0,0,0,30.65.59H21.23v26H28.3v-4.2l3.53,4.2h9.3l-8.2-9.77a8.26,8.26,0,0,0,6-7.92M28.3,7.65h2.35a1.22,1.22,0,0,1,1.22,1.22A1.19,1.19,0,0,1,30.65,10H28.3Zm-21.24,0H9.5a1.22,1.22,0,0,1,1.21,1.22A1.19,1.19,0,0,1,9.5,10H7.06Zm0,9.46H9.5A8.26,8.26,0,1,0,9.5.59H0v26H7.06Z" transform="translate(0 0)"/></g></g></g></svg>