<?xml version="1.0" standalone="no"?>
<!DOCTYPE svg PUBLIC "-//W3C//DTD SVG 20010904//EN"
 "http://www.w3.org/TR/2001/REC-SVG-20010904/DTD/svg10.dtd">
<svg version="1.0" xmlns="http://www.w3.org/2000/svg"
 width="500.000000pt" height="500.000000pt" viewBox="0 0 500.000000 500.000000"
 preserveAspectRatio="xMidYMid meet">
<metadata>
Created by potrace 1.11, written by Peter Selinger 2001-2013
</metadata>
<g transform="translate(0.000000,500.000000) scale(0.100000,-0.100000)"
fill="#000000" stroke="none">
<path d="M544 4982 c0 -15 10 -18 53 -20 29 -1 53 1 53 6 0 19 -27 32 -65 32
-32 0 -41 -4 -41 -18z"/>
<path d="M3962 4980 c-6 -11 -12 -29 -12 -40 0 -11 -6 -20 -14 -20 -8 0 -16
-7 -20 -15 -3 -8 -15 -14 -27 -12 -36 4 -69 -54 -69 -120 0 -55 -19 -91 -40
-78 -6 4 -10 -5 -10 -19 0 -14 5 -26 10 -26 6 0 10 6 10 13 0 9 3 8 9 -2 5 -7
6 -22 4 -32 -4 -13 0 -19 11 -19 9 0 16 -4 16 -8 0 -5 11 -15 25 -22 20 -11
25 -21 25 -50 l0 -37 84 0 c69 1 89 -2 105 -17 11 -10 20 -21 19 -25 -3 -28 4
-51 17 -51 10 0 15 10 15 33 1 32 1 32 24 -16 13 -26 32 -55 42 -65 19 -17 28
-37 25 -57 -2 -17 -10 -69 -17 -102 -5 -26 -14 -35 -41 -45 -34 -12 -35 -14
-29 -55 l6 -43 -37 0 c-20 0 -34 -3 -30 -6 3 -3 -7 -17 -23 -30 -18 -16 -31
-38 -35 -64 -6 -33 -11 -40 -30 -40 -19 0 -23 6 -28 47 -3 27 -11 50 -21 55
-9 5 -16 16 -16 23 0 8 -7 15 -15 15 -8 0 -15 -7 -15 -15 0 -10 -10 -15 -30
-15 -18 0 -30 5 -30 13 0 7 -17 19 -37 26 -21 8 -41 19 -45 24 -4 8 -15 7 -33
-1 -14 -7 -41 -12 -60 -12 -19 0 -35 -4 -35 -10 0 -5 -9 -10 -20 -10 -24 0
-23 5 -5 -58 10 -32 21 -52 30 -52 8 0 15 -7 15 -15 0 -10 10 -15 34 -15 28 0
35 4 40 25 9 35 46 35 46 0 0 -14 7 -28 15 -31 8 -4 22 -31 31 -61 13 -45 21
-56 46 -65 16 -6 33 -21 38 -34 8 -20 16 -24 55 -24 33 0 45 4 45 15 0 8 7 15
15 15 8 0 15 -9 15 -19 0 -10 7 -21 15 -25 8 -3 15 -14 15 -25 0 -11 9 -26 21
-34 14 -10 19 -23 16 -43 -3 -25 -9 -30 -43 -35 -21 -3 -60 -15 -86 -27 -26
-12 -52 -22 -57 -22 -6 0 -11 -7 -11 -15 0 -8 -7 -15 -15 -15 -21 0 -19 -17 6
-43 11 -12 25 -41 32 -64 6 -24 17 -43 25 -43 7 0 10 5 6 11 -4 8 1 9 17 4 37
-12 65 -36 85 -75 15 -27 25 -34 43 -32 18 3 22 0 19 -15 -2 -10 -9 -17 -15
-16 -6 1 -13 -11 -17 -27 -3 -17 -11 -30 -17 -30 -6 0 -22 -11 -35 -25 -22
-23 -44 -30 -87 -25 -10 1 -28 -5 -40 -12 -12 -8 -38 -15 -57 -17 -47 -4 -57
-14 -55 -53 2 -18 -2 -39 -7 -45 -12 -15 -74 -18 -82 -4 -3 5 -18 12 -33 16
-15 3 -33 14 -40 23 -12 16 -12 16 -13 0 0 -10 -5 -18 -10 -18 -18 0 -4 -72
18 -98 23 -24 31 -92 12 -92 -13 0 -53 22 -62 34 -11 15 -78 -24 -89 -51 -5
-14 -27 -43 -49 -63 -42 -40 -53 -79 -22 -81 10 0 12 -3 5 -6 -7 -2 -13 -11
-13 -18 0 -7 -5 -15 -12 -17 -8 -3 -7 -16 6 -49 10 -24 19 -58 20 -74 3 -30 2
-30 -46 -33 -29 -1 -48 2 -48 9 0 6 -6 9 -14 6 -13 -5 -69 10 -94 26 -14 10
-27 -16 -19 -37 6 -14 -26 -33 -45 -28 -7 2 -9 -4 -12 -40 -1 -7 -7 -19 -14
-27 -7 -8 -12 -29 -10 -49 3 -27 9 -36 23 -37 31 -3 65 -15 65 -25 0 -12 -65
-40 -93 -40 -14 0 -27 5 -29 11 -6 18 -64 1 -98 -27 -28 -24 -31 -24 -59 -9
-17 8 -39 15 -50 15 -31 0 -42 32 -53 154 -6 61 -14 113 -18 116 -5 3 -12 18
-15 33 -4 15 -12 30 -17 33 -20 13 -138 9 -143 -3 -9 -26 -35 -14 -35 17 0 24
-4 30 -21 30 -14 0 -19 5 -17 18 2 13 11 16 34 14 l32 -3 -8 40 c-4 22 -12 46
-17 53 -5 7 -8 29 -7 48 4 48 -3 67 -26 73 -14 4 -20 14 -20 34 0 16 -6 35
-13 42 -9 11 -9 14 1 18 6 3 12 11 12 19 0 8 7 14 15 14 8 0 15 -7 15 -15 0
-8 9 -15 20 -15 11 0 20 7 20 15 0 8 5 15 10 15 6 0 10 -4 10 -10 0 -5 9 -10
20 -10 25 0 25 4 -1 39 -19 26 -25 28 -71 23 -40 -4 -53 -1 -60 12 -5 9 -20
16 -34 16 -24 0 -85 34 -92 52 -2 4 -9 5 -15 2 -20 -7 -47 50 -47 99 0 51 -15
68 -57 65 -38 -3 -61 19 -55 50 3 16 -1 28 -12 34 -9 5 -16 20 -16 34 0 14 -7
32 -15 40 -13 14 -17 14 -31 0 -8 -9 -26 -16 -40 -16 -14 0 -24 -6 -24 -14 0
-8 -6 -17 -12 -20 -10 -5 -10 -7 0 -12 6 -3 12 -18 12 -34 0 -24 -5 -30 -31
-35 -23 -5 -34 -3 -44 12 -8 10 -15 21 -15 25 0 4 -20 10 -44 13 -29 5 -46 13
-49 24 -2 9 -21 25 -42 36 -21 11 -47 28 -57 38 -20 19 -64 23 -70 5 -2 -6
-12 -9 -21 -5 -13 5 -17 19 -17 57 0 49 -1 50 -29 50 -16 0 -32 -6 -35 -12 -3
-7 -4 3 -3 22 2 30 5 35 25 32 12 -2 22 2 22 9 0 8 -17 10 -55 7 -51 -4 -55
-3 -55 16 0 12 7 30 15 40 8 11 15 32 15 48 0 15 4 28 8 28 5 0 17 20 28 45
10 25 22 45 26 45 4 0 8 11 8 25 0 32 37 69 70 70 21 0 25 4 22 28 l-3 28 68
-3 68 -3 1 -35 c1 -55 2 -57 33 -63 18 -4 32 -14 36 -27 7 -21 7 -21 31 5 13
14 24 37 24 51 0 24 2 25 57 22 57 -3 80 -20 36 -26 -13 -2 -23 -10 -23 -18 0
-16 14 -24 51 -27 13 -2 40 -11 58 -21 21 -11 54 -18 82 -17 27 0 51 -4 54 -9
3 -6 17 -10 31 -10 13 0 24 -4 24 -10 0 -5 -6 -10 -12 -10 -10 0 -10 -2 -1 -8
6 -4 17 -29 23 -55 11 -42 15 -47 41 -47 30 0 67 40 54 60 -3 5 1 10 10 10 11
0 15 5 12 14 -3 8 -1 16 6 19 11 3 13 43 7 147 -1 14 0 68 1 120 2 72 -2 106
-15 140 -10 25 -18 53 -19 62 -1 9 -5 14 -10 11 -5 -3 -18 5 -29 17 -17 19
-26 20 -74 14 -44 -5 -55 -3 -60 10 -7 17 -34 22 -34 6 0 -5 -6 -10 -14 -10
-14 0 -26 42 -26 91 0 15 -7 32 -15 36 -12 7 -13 15 -4 43 30 90 41 109 70
115 16 4 29 11 29 16 0 5 7 9 16 9 8 0 12 5 9 10 -3 6 3 10 14 10 16 0 20 6
19 25 -1 14 -5 25 -9 25 -12 0 3 49 20 64 22 20 16 77 -10 105 -11 11 -22 34
-25 51 -5 21 -12 30 -25 30 -11 0 -19 -4 -19 -10 0 -5 -7 -7 -15 -4 -8 4 -13
10 -10 14 7 12 -6 70 -16 70 -5 0 -9 -22 -9 -48 0 -48 0 -48 -29 -44 -23 3
-36 -2 -54 -22 -13 -14 -31 -26 -39 -26 -18 0 -75 -103 -59 -108 6 -2 11 -10
11 -18 0 -8 9 -25 21 -37 17 -18 20 -30 14 -70 -7 -54 -23 -87 -42 -87 -7 0
-13 -5 -13 -12 0 -9 -3 -9 -12 0 -15 15 -48 16 -48 2 0 -5 -12 -10 -27 -10
-62 0 -98 -25 -53 -37 20 -5 28 -37 11 -48 -5 -3 -16 2 -24 10 -12 11 -39 15
-110 15 -89 0 -94 1 -105 24 -12 27 -51 38 -81 22 -33 -18 -97 -7 -125 21 -17
17 -31 23 -45 18 -30 -9 -57 10 -64 44 -5 25 -12 30 -39 33 -26 2 -34 8 -36
26 -3 18 -8 23 -23 19 -10 -3 -21 -1 -24 4 -9 13 -118 6 -134 -9 -11 -11 -12
-21 -3 -50 11 -36 1 -68 -19 -56 -5 3 -9 -2 -9 -12 0 -9 -8 -23 -17 -30 -23
-17 -85 -18 -82 -1 3 20 -12 47 -28 47 -11 0 -13 -9 -7 -45 5 -36 3 -46 -10
-51 -9 -3 -16 -13 -16 -22 0 -13 -3 -12 -16 4 -15 19 -15 19 -9 -2 4 -16 -6
-32 -41 -67 -52 -50 -59 -81 -31 -147 4 -8 8 -59 10 -112 3 -76 1 -98 -10 -98
-7 0 -13 -5 -13 -12 0 -6 3 -9 6 -5 8 8 44 -25 44 -41 0 -7 11 -23 24 -35 31
-29 43 -67 22 -67 -12 0 -16 -11 -16 -46 0 -65 -11 -72 -114 -71 -73 1 -90 -2
-97 -16 -14 -24 -69 -23 -69 1 0 14 -2 15 -10 2 -8 -12 -10 -11 -10 8 0 15 -6
22 -20 22 -16 0 -20 -7 -21 -37 -1 -26 -3 -30 -6 -14 -4 19 -10 22 -34 19 -16
-3 -29 0 -29 4 0 28 -46 46 -125 50 -22 1 -43 7 -47 12 -5 7 -8 5 -8 -4 0 -9
-14 -24 -30 -34 -17 -9 -28 -22 -24 -27 8 -14 -25 -44 -55 -52 -33 -8 -75 18
-89 55 -7 19 -16 29 -25 25 -9 -3 -18 7 -26 30 -10 26 -18 33 -34 31 l-22 -3
-3 -432 c-2 -428 -2 -431 18 -426 16 4 20 0 20 -21 0 -14 5 -26 10 -26 6 0 15
-11 20 -25 5 -14 13 -25 18 -25 5 0 9 -21 10 -47 2 -35 8 -53 23 -65 22 -19
49 -24 49 -9 0 4 11 20 25 34 25 24 71 38 129 37 15 0 34 4 41 10 17 14 45 2
38 -16 -3 -8 -1 -14 3 -14 5 0 15 -13 22 -28 9 -21 24 -32 55 -41 23 -7 50
-17 59 -22 25 -13 37 -11 54 6 25 25 73 18 111 -15 18 -16 40 -30 48 -30 18 0
20 -46 3 -53 -8 -3 1 -18 25 -40 67 -61 125 -216 118 -314 -2 -37 0 -43 17
-43 12 0 23 -9 27 -19 3 -11 12 -22 20 -25 8 -3 15 -14 15 -24 0 -11 7 -25 15
-32 8 -7 17 -27 21 -45 3 -19 14 -41 24 -50 16 -14 17 -22 8 -48 -6 -18 -14
-34 -18 -37 -4 -3 -7 -15 -6 -27 0 -12 -3 -22 -9 -22 -5 0 -9 7 -7 15 2 8 -2
14 -8 14 -14 0 -25 -30 -14 -39 10 -6 48 -63 49 -71 0 -3 10 -20 23 -37 13
-18 20 -33 15 -33 -4 0 -3 -4 4 -8 19 -12 20 -80 1 -99 -46 -49 -75 -53 -85
-13 -6 23 -43 28 -43 5 0 -8 -14 -17 -35 -21 -19 -3 -38 -10 -41 -15 -9 -15
-24 -10 -24 7 0 14 -1 14 -16 0 -8 -9 -24 -16 -34 -16 -22 0 -50 -35 -51 -65
0 -11 -3 -14 -6 -7 -2 6 -13 12 -24 12 -26 0 -69 29 -69 46 0 19 -109 20 -114
2 -2 -7 -9 -30 -15 -50 -10 -30 -10 -43 1 -65 7 -16 19 -29 26 -29 6 -1 26 -2
42 -3 38 -1 40 -28 2 -34 -15 -2 -4 -2 23 0 77 6 96 13 105 39 10 25 30 33 30
13 0 -14 -47 -59 -61 -59 -18 0 -9 -17 26 -48 20 -19 40 -29 50 -26 8 3 15 2
15 -3 0 -6 11 -22 25 -37 14 -15 23 -32 20 -37 -4 -5 -1 -9 4 -9 6 0 11 -11
11 -24 0 -14 4 -27 9 -31 5 -3 8 -17 5 -31 -3 -16 -1 -23 6 -19 5 3 10 14 10
23 0 10 3 13 8 6 4 -6 15 -13 25 -17 9 -3 17 -13 17 -22 0 -8 5 -15 10 -15 6
0 10 -11 10 -25 0 -19 5 -25 23 -26 108 -4 137 -12 137 -36 0 -8 9 -17 20 -20
11 -3 20 -9 20 -14 0 -5 25 -9 55 -9 30 0 55 -5 55 -10 0 -27 51 -53 107 -56
32 -1 59 -7 61 -13 2 -6 19 -11 38 -11 19 0 34 -4 34 -8 0 -13 124 20 133 35
4 7 14 13 21 13 16 0 76 62 76 79 0 7 5 9 12 5 7 -4 8 -3 4 5 -8 12 44 71 62
71 4 0 8 9 9 19 2 22 43 68 43 49 1 -7 7 -1 15 13 10 18 31 33 61 43 26 9 49
14 52 11 9 -9 82 36 82 50 0 9 9 15 24 15 13 0 26 7 30 15 7 20 -49 21 -61 2
-12 -21 -51 -27 -57 -10 -10 26 -6 42 16 62 17 17 29 19 62 14 23 -3 42 -9 44
-13 4 -10 62 1 62 11 0 5 7 9 15 9 8 0 15 5 15 10 0 6 6 10 14 10 8 0 17 6 19
13 4 9 6 9 6 0 1 -7 12 -13 25 -13 20 0 25 -7 31 -37 4 -24 3 -39 -4 -41 -21
-7 -11 -41 22 -68 17 -15 31 -31 29 -36 -1 -5 9 -13 22 -18 13 -5 27 -14 31
-20 6 -9 10 -9 16 1 6 10 9 6 9 -13 0 -18 8 -31 23 -39 21 -11 80 -68 82 -79
11 -62 37 -110 60 -110 6 0 15 -10 20 -21 11 -25 52 -41 144 -58 45 -9 67 -9
74 -2 19 19 47 13 47 -9 0 -11 -5 -20 -11 -20 -8 0 -10 -18 -5 -59 4 -38 3
-62 -4 -66 -5 -3 -10 -22 -10 -41 0 -27 5 -37 25 -46 14 -6 25 -16 25 -21 0
-6 3 -8 6 -4 6 6 34 -16 34 -27 0 -12 -28 -6 -33 7 -3 6 -8 -2 -12 -19 -5 -22
-18 -38 -41 -50 -19 -10 -37 -27 -40 -36 -3 -10 -9 -16 -14 -13 -5 3 -11 -8
-15 -24 -5 -22 -13 -30 -36 -35 -20 -4 -36 -1 -45 8 -20 20 -17 28 6 21 14 -5
20 -2 20 9 0 17 -11 19 -48 10 -13 -4 -21 -12 -18 -19 2 -7 -6 -18 -19 -25
-21 -11 -23 -19 -20 -67 2 -49 0 -55 -21 -63 -12 -5 -102 -8 -198 -7 l-176 2
0 -26 c0 -15 7 -32 15 -39 18 -15 20 -40 3 -40 -13 0 -48 -61 -48 -82 0 -12
169 -2 183 11 10 10 57 1 57 -10 0 -13 597 -12 621 1 21 12 26 55 7 63 -10 4
-10 8 1 15 20 14 27 122 11 153 -10 17 -10 24 -1 27 6 2 8 8 5 13 -3 6 0 16 6
24 6 8 9 19 5 26 -6 8 -10 7 -16 -2 -7 -11 -9 -11 -9 -1 0 7 15 19 33 27 17 8
28 15 22 15 -5 0 -2 5 8 11 14 8 17 18 11 42 -3 17 -13 37 -20 45 -8 7 -14 20
-14 29 0 12 -8 14 -35 10 -19 -3 -35 -4 -35 -1 0 4 26 37 49 61 10 11 11 17 2
26 -6 6 -11 20 -10 32 0 11 3 14 6 8 2 -7 9 -13 13 -13 14 0 31 76 24 105 -7
29 -5 29 68 13 58 -12 78 -29 71 -58 -3 -11 6 -33 21 -53 14 -18 23 -36 20
-40 -3 -3 13 -3 35 0 37 5 41 3 41 -15 0 -12 9 -23 21 -27 16 -5 19 -12 15
-30 -4 -15 0 -28 11 -36 15 -12 16 -12 10 4 -5 12 -1 17 13 17 15 0 20 -7 20
-26 0 -14 6 -31 13 -38 14 -14 57 -31 70 -28 4 1 7 -3 7 -8 0 -6 10 -15 23
-20 12 -6 29 -14 37 -19 8 -5 42 -22 76 -37 56 -27 62 -33 73 -72 14 -52 25
-57 151 -66 85 -6 99 -10 132 -36 39 -32 82 -41 72 -16 -3 8 0 17 7 22 7 4 15
2 17 -4 2 -7 10 -12 17 -12 8 0 20 -6 28 -14 7 -8 25 -16 38 -18 13 -1 28 -13
34 -25 8 -19 15 -21 60 -16 55 6 75 17 75 42 0 22 35 51 60 51 12 0 23 7 27
16 6 15 8 15 20 -2 10 -13 16 -15 24 -7 6 6 18 9 27 6 10 -4 13 -1 10 8 -2 8
-17 15 -31 17 -23 3 -27 8 -27 34 0 29 -2 30 -32 25 l-33 -5 28 11 c16 6 25
17 23 24 -3 7 -1 15 4 18 6 4 10 -3 10 -14 0 -12 5 -21 10 -21 6 0 10 9 10 20
0 12 5 17 14 14 9 -4 17 7 23 33 7 31 14 39 38 43 20 3 34 15 43 33 9 18 21
27 37 27 29 0 39 14 27 37 -11 18 6 43 29 43 19 0 2 59 -23 80 -19 15 -22 28
-23 89 -1 75 9 90 46 71 16 -9 19 -7 19 14 0 23 4 25 57 28 51 3 56 5 60 27 5
32 7 34 43 34 34 0 34 1 18 26 -14 23 9 79 41 99 17 10 21 22 21 62 0 50 0 50
-32 50 -33 1 -70 20 -67 36 4 21 -2 35 -11 29 -6 -3 -10 -1 -10 5 0 8 -7 9
-17 5 -10 -4 -28 -7 -41 -6 -12 0 -32 -9 -43 -20 -19 -19 -20 -23 -6 -31 22
-12 30 -64 19 -123 -5 -28 -10 -42 -11 -32 0 9 -8 17 -16 17 -9 0 -15 9 -15
25 0 21 -5 25 -29 25 -25 0 -30 5 -35 33 -3 17 -19 45 -36 60 -16 16 -27 34
-24 42 4 8 -6 29 -20 46 -28 33 -31 44 -16 54 6 3 10 23 10 44 0 28 -6 42 -22
53 -19 13 -22 24 -23 114 -1 54 -5 111 -9 126 -6 21 -5 29 8 33 9 3 24 7 33
10 12 4 14 8 5 17 -9 9 -15 9 -24 0 -20 -20 -29 -14 -10 7 48 53 62 75 57 91
-7 23 4 50 21 50 8 0 14 4 14 10 0 5 17 16 38 26 78 34 83 37 72 48 -15 15
-12 21 13 22 12 0 30 4 40 8 11 6 17 4 17 -6 0 -20 37 -20 52 0 16 22 62 42
94 42 49 0 18 23 -36 27 -30 2 -57 8 -60 13 -8 14 -120 11 -120 -3 0 -7 -5 -4
-11 6 -5 9 -19 17 -29 17 -11 0 -20 5 -20 10 0 6 5 10 10 10 6 0 10 5 10 10 0
7 -13 8 -34 4 -33 -6 -35 -5 -47 34 -16 54 -2 96 34 100 15 2 27 0 26 -5 -4
-24 4 -33 29 -33 20 0 32 -8 45 -30 23 -38 46 -39 46 -2 1 15 1 36 2 47 0 11
0 25 -1 30 -1 6 -2 22 -1 37 1 24 6 28 47 34 57 8 87 35 78 68 -7 30 27 71 45
53 8 -8 11 347 11 1301 l0 1312 -513 0 c-500 0 -512 0 -525 -20z m-1832 -1000
c0 -11 -4 -20 -10 -20 -5 0 -10 9 -10 20 0 11 5 20 10 20 6 0 10 -9 10 -20z
m-517 -65 c-3 -9 -8 -14 -10 -11 -3 3 -2 9 2 15 9 16 15 13 8 -4z m-30 -499
c-5 -30 -2 -34 21 -38 26 -5 35 5 16 17 -5 3 -10 11 -10 17 0 6 9 3 20 -7 29
-26 26 -63 -5 -75 -26 -10 -36 -55 -13 -62 6 -2 12 -18 13 -36 4 -84 2 -81 42
-84 36 -3 39 -5 53 -55 8 -29 21 -55 28 -58 10 -3 12 0 8 10 -4 12 3 15 39 15
35 0 45 4 50 20 8 26 30 26 32 0 1 -12 -3 -18 -9 -14 -14 9 -1 -85 14 -103 12
-15 2 -63 -13 -63 -5 0 -9 10 -8 23 6 63 0 75 -36 79 -23 3 -35 0 -35 -8 0 -6
-8 -14 -18 -17 -11 -2 -21 -17 -25 -35 -4 -18 -14 -33 -26 -37 -10 -3 -22 -12
-25 -20 -3 -9 -18 -15 -34 -15 -16 0 -35 -6 -41 -14 -7 -8 -26 -18 -42 -21
-16 -4 -29 -11 -29 -16 0 -5 -7 -9 -16 -9 -9 0 -22 -7 -29 -17 -23 -32 -193
-16 -231 21 -12 13 -29 17 -60 14 -23 -1 -40 0 -37 5 2 4 13 7 24 7 27 0 24
15 -6 28 -14 6 -25 18 -25 27 0 8 -9 20 -20 27 -12 8 -20 24 -20 39 0 18 -8
29 -26 37 -21 10 -25 18 -22 44 3 32 2 32 -39 33 l-43 0 -2 -40 c-1 -22 -2
-52 -1 -67 1 -25 -2 -27 -26 -22 -28 6 -81 59 -81 81 0 15 58 53 81 53 8 0 25
14 37 30 13 17 29 30 37 30 17 0 18 8 9 73 -6 39 -10 46 -31 49 l-24 3 29 35
30 35 101 3 c89 3 103 6 116 24 14 22 73 36 148 37 21 1 57 10 80 20 23 10 51
21 62 24 11 2 21 5 22 6 1 0 -1 -14 -4 -33z m-586 -198 c-3 -7 -5 -2 -5 12 0
14 2 19 5 13 2 -7 2 -19 0 -25z m973 -48 c0 -29 -2 -30 -44 -30 -25 0 -48 5
-51 11 -12 19 26 49 62 49 30 0 33 -3 33 -30z m-907 -135 c-7 -21 -13 -19 -13
6 0 11 4 18 10 14 5 -3 7 -12 3 -20z m3077 -105 c5 0 20 4 34 10 19 7 24 6 20
-4 -3 -7 3 -29 14 -47 16 -29 24 -34 50 -31 16 2 33 -2 37 -8 3 -6 11 -8 16
-5 5 4 16 -1 25 -9 8 -9 26 -16 39 -16 24 0 40 -35 29 -64 -3 -8 1 -23 10 -31
9 -9 16 -29 16 -43 0 -15 9 -35 20 -45 33 -28 25 -54 -22 -74 -24 -11 -28 -10
-28 2 0 21 -7 19 -37 -11 -19 -19 -23 -28 -14 -37 6 -6 11 -24 11 -39 0 -18 5
-28 15 -28 8 0 15 -6 15 -14 0 -28 -12 -46 -32 -46 -16 0 -18 4 -12 23 5 16
-6 9 -40 -26 -26 -26 -44 -52 -40 -58 4 -8 -1 -9 -15 -4 -11 3 -21 2 -21 -3 0
-5 -19 -15 -42 -23 -39 -13 -40 -14 -17 -21 20 -6 19 -7 -8 -4 -25 2 -33 -1
-33 -14 0 -17 -38 -40 -65 -40 -8 0 -15 -6 -15 -13 0 -8 -11 -19 -24 -25 -29
-13 -46 -70 -25 -83 10 -6 11 -9 2 -9 -8 0 -13 -15 -13 -39 0 -22 -5 -41 -12
-43 -8 -3 -4 -13 12 -29 32 -31 30 -82 -4 -104 -25 -17 -46 -55 -46 -85 0 -11
-4 -20 -10 -20 -5 0 -10 -6 -10 -14 0 -15 30 -26 71 -26 15 0 37 -12 54 -30
18 -19 39 -30 56 -30 27 0 59 -22 59 -41 0 -6 7 -17 15 -25 23 -23 22 -25 -37
-93 -7 -8 -13 -27 -14 -43 -3 -40 -32 -84 -47 -69 -6 6 -19 11 -28 11 -15 0
-17 -6 -12 -35 5 -31 3 -35 -16 -35 -12 0 -34 -13 -50 -28 -15 -16 -38 -31
-52 -34 -43 -9 -54 -13 -59 -20 -3 -4 -17 -9 -30 -11 -32 -6 -110 -48 -110
-59 0 -13 -44 -8 -64 7 -14 10 -45 15 -97 15 -43 0 -81 5 -84 10 -8 14 -51 13
-74 -2 -24 -15 -51 -4 -51 22 0 17 -6 20 -45 20 l-45 0 0 103 c0 147 0 147
-70 147 -49 0 -58 -3 -63 -20 -4 -17 -14 -20 -61 -20 -41 0 -56 4 -56 14 0 8
-11 17 -25 20 -18 5 -25 13 -25 31 0 25 19 75 29 75 3 0 7 12 7 26 1 14 10 32
20 39 15 12 16 16 6 23 -11 8 -11 10 2 15 9 4 16 14 16 22 0 10 7 16 18 14 50
-5 52 -3 52 70 0 46 -4 71 -12 74 -10 3 -7 16 10 48 12 24 22 49 22 55 0 7 7
14 15 18 9 3 15 18 15 35 0 16 5 33 10 36 15 10 12 45 -5 51 -8 4 -22 1 -29
-5 -18 -16 -148 -12 -143 3 2 6 14 13 27 14 14 2 32 13 41 23 17 20 59 26 59
9 0 -5 16 -10 35 -10 29 0 35 -4 35 -21 0 -20 3 -21 58 -14 31 4 62 11 69 17
7 6 33 7 61 3 59 -8 70 2 76 71 2 27 4 52 5 55 1 4 14 9 31 12 25 6 31 12 36
45 4 28 14 43 34 55 32 19 70 22 70 6 0 -8 17 -10 55 -5 44 5 57 3 61 -9 3 -8
21 -17 40 -21 36 -7 56 -25 36 -32 -19 -6 -14 -22 7 -22 11 0 23 -4 26 -10 9
-14 82 -13 91 2 4 6 6 35 5 64 -2 47 1 54 29 76 25 20 31 31 28 54 -2 23 -8
30 -30 32 -25 3 -28 0 -28 -27 0 -29 -3 -31 -35 -31 -19 0 -35 -4 -35 -10 0
-21 -47 -10 -60 15 -11 21 -11 29 0 50 11 20 11 32 1 67 -7 24 -18 46 -24 49
-5 4 -7 15 -2 25 4 12 9 14 12 7 7 -20 33 -3 33 22 0 12 10 30 23 38 19 14 20
18 7 26 -8 6 -11 11 -5 11 5 0 4 5 -3 12 -19 19 -14 41 13 60 19 14 29 16 51
8 32 -13 53 9 54 55 0 38 32 62 51 39 16 -20 60 -14 79 11 15 20 15 20 18 -2
2 -13 7 -23 12 -23z m-1795 -244 c6 -7 16 -11 23 -9 6 3 12 -3 12 -12 0 -9 -4
-14 -9 -11 -5 3 -14 -1 -21 -9 -7 -8 -23 -15 -36 -15 -12 0 -26 -4 -29 -10
-11 -17 -35 -11 -44 12 -11 31 35 80 69 73 14 -4 30 -12 35 -19z m77 -52 c-13
-9 -26 -13 -30 -9 -8 8 17 25 38 25 9 0 6 -6 -8 -16z m2138 -394 c0 -5 -4 -10
-10 -10 -5 0 -10 5 -10 10 0 6 5 10 10 10 6 0 10 -4 10 -10z m-495 -150 c-3
-5 -10 -10 -16 -10 -5 0 -9 5 -9 10 0 6 7 10 16 10 8 0 12 -4 9 -10z m195
-500 c0 -5 -9 -10 -20 -10 -11 0 -20 5 -20 10 0 6 9 10 20 10 11 0 20 -4 20
-10z m-3405 -194 c17 -4 49 -7 73 -8 24 -1 38 -5 31 -9 -7 -4 -10 -20 -7 -38
5 -35 5 -35 -24 -20 -17 9 -24 7 -42 -14 -11 -13 -35 -26 -52 -29 -30 -4 -31
-3 -43 53 -14 62 -9 83 17 75 10 -2 31 -7 47 -10z m2267 -174 c2 -10 2 -30 -2
-46 -6 -34 -46 -51 -86 -36 -21 8 -24 16 -24 57 l0 48 54 -3 c40 -3 55 -8 58
-20z m-305 -129 c-3 -10 -5 -4 -5 12 0 17 2 24 5 18 2 -7 2 -21 0 -30z m1707
-138 c15 -8 41 -15 57 -15 22 0 29 -5 29 -19 0 -11 5 -21 10 -23 6 -2 12 -16
13 -33 2 -34 -22 -44 -58 -25 -17 9 -28 9 -44 0 -19 -10 -26 -7 -56 25 -39 39
-42 50 -19 59 8 3 12 10 9 16 -8 13 3 30 18 30 7 0 25 -7 41 -15z m-1422 -183
c13 -13 -19 -42 -47 -42 -13 0 -35 11 -49 24 -47 43 -28 61 43 40 24 -7 48
-17 53 -22z m313 -202 c3 -5 1 -10 -4 -10 -6 0 -11 5 -11 10 0 6 2 10 4 10 3
0 8 -4 11 -10z"/>
<path d="M1580 3350 c0 -11 7 -20 15 -20 8 0 15 9 15 20 0 11 -7 20 -15 20 -8
0 -15 -9 -15 -20z"/>
<path d="M4105 2920 c-3 -5 -4 -14 -1 -19 4 -5 0 -11 -6 -14 -10 -4 -10 -7 0
-18 11 -12 14 -12 22 1 12 19 13 47 1 55 -5 3 -12 1 -16 -5z"/>
<path d="M3250 2113 c0 -10 4 -25 10 -33 7 -11 11 -9 19 13 14 37 14 37 -9 37
-12 0 -20 -7 -20 -17z"/>
<path d="M3140 1990 c0 -5 7 -7 15 -4 8 4 15 8 15 10 0 2 -7 4 -15 4 -8 0 -15
-4 -15 -10z"/>
<path d="M3122 1781 c2 -7 7 -12 11 -12 12 1 9 15 -3 20 -7 2 -11 -2 -8 -8z"/>
<path d="M3280 1611 c0 -30 4 -41 15 -41 9 0 16 10 17 25 0 14 1 31 2 37 1 7
-7 14 -16 16 -15 3 -18 -4 -18 -37z"/>
<path d="M3010 1606 c0 -14 5 -26 10 -26 6 0 10 9 10 19 0 11 -4 23 -10 26 -6
4 -10 -5 -10 -19z"/>
<path d="M890 1370 c0 -5 7 -10 15 -10 8 0 15 5 15 10 0 6 -7 10 -15 10 -8 0
-15 -4 -15 -10z"/>
<path d="M4560 880 c-8 -5 -11 -12 -7 -16 4 -4 13 -2 19 4 15 15 7 24 -12 12z"/>
<path d="M464 4955 c-10 -8 -14 -15 -7 -15 19 0 43 11 43 21 0 13 -14 11 -36
-6z"/>
<path d="M2186 4945 c4 -8 17 -15 30 -15 15 0 24 6 24 15 0 10 -10 15 -30 15
-22 0 -28 -4 -24 -15z"/>
<path d="M995 4688 c-14 -16 -25 -39 -25 -51 1 -20 2 -20 16 6 8 15 19 27 24
27 12 0 13 -13 1 -25 -5 -6 -12 -20 -16 -32 -5 -19 -2 -23 14 -23 12 0 21 7
21 15 0 8 7 15 15 15 8 0 15 5 15 10 0 6 -4 10 -10 10 -5 0 -10 11 -10 25 0
14 5 25 10 25 18 0 10 18 -10 23 -14 3 -28 -4 -45 -25z"/>
<path d="M2380 4690 c0 -5 5 -10 10 -10 6 0 10 5 10 10 0 6 -4 10 -10 10 -5 0
-10 -4 -10 -10z"/>
<path d="M2442 4600 c0 -14 2 -19 5 -12 2 6 2 18 0 25 -3 6 -5 1 -5 -13z"/>
<path d="M2400 4580 c-27 -6 -34 -33 -10 -37 21 -4 43 12 38 29 -2 10 -11 12
-28 8z"/>
<path d="M4062 4420 c0 -14 2 -19 5 -12 2 6 2 18 0 25 -3 6 -5 1 -5 -13z"/>
<path d="M3692 4417 c-6 -7 -8 -17 -4 -23 10 -16 51 -24 59 -12 3 6 2 9 -3 6
-5 -3 -16 1 -24 10 -13 14 -12 15 3 9 11 -4 17 -1 17 8 0 18 -34 20 -48 2z"/>
<path d="M3570 4320 c0 -5 5 -10 10 -10 6 0 10 5 10 10 0 6 -4 10 -10 10 -5 0
-10 -4 -10 -10z"/>
<path d="M3632 4300 c0 -19 2 -27 5 -17 2 9 2 25 0 35 -3 9 -5 1 -5 -18z"/>
<path d="M2315 4270 c-4 -6 7 -10 25 -10 18 0 29 4 25 10 -3 6 -15 10 -25 10
-10 0 -22 -4 -25 -10z"/>
<path d="M3444 4154 c-13 -6 -7 -44 7 -44 5 0 18 5 28 12 16 10 17 14 6 25
-14 13 -22 15 -41 7z"/>
<path d="M4028 4133 c7 -3 16 -2 19 1 4 3 -2 6 -13 5 -11 0 -14 -3 -6 -6z"/>
<path d="M1778 3933 c18 -2 45 -2 60 0 15 2 0 4 -33 4 -33 0 -45 -2 -27 -4z"/>
<path d="M1780 3880 c0 -5 -7 -10 -15 -10 -8 0 -15 -9 -15 -20 0 -11 7 -20 15
-20 8 0 15 6 15 14 0 7 9 16 20 19 11 3 20 10 20 16 0 6 -9 11 -20 11 -11 0
-20 -4 -20 -10z"/>
<path d="M3658 3883 c6 -2 18 -2 25 0 6 3 1 5 -13 5 -14 0 -19 -2 -12 -5z"/>
<path d="M1720 3785 c0 -8 -7 -15 -15 -15 -8 0 -15 -4 -15 -9 0 -5 16 -9 35
-8 25 1 34 6 30 15 -3 8 -5 18 -5 23 0 5 -7 9 -15 9 -8 0 -15 -7 -15 -15z"/>
<path d="M3533 3573 c-15 -5 -18 -53 -4 -53 5 0 16 -3 24 -6 20 -7 33 32 17
51 -13 16 -17 17 -37 8z"/>
<path d="M2480 3289 c0 -24 23 -21 28 4 2 10 -3 17 -12 17 -10 0 -16 -9 -16
-21z"/>
<path d="M2353 3182 c-34 -5 -28 -29 8 -36 47 -9 59 -7 59 7 0 18 -38 34 -67
29z"/>
<path d="M3195 2590 c-3 -5 1 -10 9 -10 9 0 16 -7 16 -16 0 -9 5 -14 12 -12
18 6 21 28 4 28 -9 0 -16 5 -16 10 0 6 -4 10 -9 10 -6 0 -13 -4 -16 -10z"/>
<path d="M3190 2530 c0 -5 7 -10 15 -10 8 0 15 5 15 10 0 6 -7 10 -15 10 -8 0
-15 -4 -15 -10z"/>
<path d="M3370 2470 c0 -5 5 -10 10 -10 6 0 10 5 10 10 0 6 -4 10 -10 10 -5 0
-10 -4 -10 -10z"/>
<path d="M4982 2230 c0 -19 2 -27 5 -17 2 9 2 25 0 35 -3 9 -5 1 -5 -18z"/>
<path d="M114 1494 c1 -33 -3 -40 -20 -42 -16 -2 -24 -13 -30 -42 -8 -36 -10
-38 -28 -25 -21 16 -36 105 -17 105 6 0 11 7 11 15 0 9 -6 12 -15 9 -12 -5
-15 -33 -15 -161 0 -140 2 -157 20 -180 11 -14 20 -41 20 -59 0 -30 3 -34 26
-34 19 0 25 4 20 15 -3 8 -1 15 4 15 4 0 11 13 15 29 5 22 13 30 36 35 35 7
39 26 4 26 -43 0 -60 62 -28 100 10 11 28 20 40 20 14 0 23 6 23 15 0 10 10
15 31 15 17 0 28 -4 24 -10 -3 -5 0 -10 8 -10 8 0 17 10 20 21 5 17 11 21 33
16 18 -3 34 1 47 14 12 10 17 19 11 19 -5 0 -2 5 7 10 21 12 22 70 3 91 -13
14 -32 16 -126 13 -76 -3 -114 -1 -118 7 -4 6 -7 -6 -6 -27z"/>
<path d="M154 1096 c-3 -8 -17 -17 -32 -21 -26 -6 -26 -7 -8 -21 26 -18 66
-18 66 0 0 8 3 21 6 29 3 8 -2 17 -11 21 -9 3 -18 0 -21 -8z"/>
<path d="M100 1020 c0 -5 5 -10 10 -10 6 0 10 5 10 10 0 6 -4 10 -10 10 -5 0
-10 -4 -10 -10z"/>
<path d="M1270 820 c0 -5 7 -10 15 -10 8 0 15 5 15 10 0 6 -7 10 -15 10 -8 0
-15 -4 -15 -10z"/>
<path d="M1420 770 c0 -16 5 -30 10 -30 6 0 10 14 10 30 0 17 -4 30 -10 30 -5
0 -10 -13 -10 -30z"/>
<path d="M515 770 c3 -5 15 -10 26 -10 11 0 17 5 14 10 -3 6 -15 10 -26 10
-11 0 -17 -4 -14 -10z"/>
<path d="M476 705 c-4 -10 1 -15 16 -15 17 0 18 2 8 15 -7 8 -14 15 -15 15 -2
0 -5 -7 -9 -15z"/>
<path d="M1200 433 c0 -31 31 -113 43 -113 4 0 7 14 7 30 0 19 5 30 14 30 21
0 36 24 29 48 -4 17 -11 21 -24 17 -11 -4 -19 -2 -19 4 0 6 -11 11 -25 11 -21
0 -25 -5 -25 -27z"/>
<path d="M2130 180 c0 -13 -7 -20 -20 -20 -11 0 -20 7 -20 15 0 8 -4 15 -9 15
-5 0 -11 -7 -15 -15 -3 -8 -12 -15 -21 -15 -8 0 -15 -4 -15 -9 0 -12 55 -21
90 -14 25 4 30 10 30 34 0 16 -4 29 -10 29 -5 0 -10 -9 -10 -20z"/>
<path d="M1566 129 c-24 -15 -4 -29 42 -29 34 0 40 8 20 28 -15 15 -37 15 -62
1z"/>
<path d="M4018 108 c-6 -17 1 -38 13 -38 5 0 9 11 9 25 0 26 -14 34 -22 13z"/>
<path d="M1940 91 c0 -12 6 -21 16 -21 9 0 14 7 12 17 -5 25 -28 28 -28 4z"/>
<path d="M1580 71 c0 -5 14 -11 31 -15 39 -7 64 5 29 15 -36 10 -60 10 -60 0z"/>
<path d="M745 40 c3 -5 8 -10 11 -10 2 0 4 5 4 10 0 6 -5 10 -11 10 -5 0 -7
-4 -4 -10z"/>
<path d="M936 24 c-9 -23 -8 -24 17 -23 21 0 21 1 2 9 -18 8 -18 9 -2 9 10 1
15 6 12 11 -9 15 -22 12 -29 -6z"/>
<path d="M0 15 c0 -8 7 -15 15 -15 8 0 15 7 15 15 0 8 -7 15 -15 15 -8 0 -15
-7 -15 -15z"/>
<path d="M150 10 c0 -5 14 -10 30 -10 17 0 30 5 30 10 0 6 -13 10 -30 10 -16
0 -30 -4 -30 -10z"/>
<path d="M626 11 c-3 -4 6 -6 19 -3 14 2 25 6 25 8 0 8 -39 4 -44 -5z"/>
</g>
</svg>
